<svg id="color" height="512" viewBox="0 0 64 64" width="512" xmlns="http://www.w3.org/2000/svg"><path d="m13 56h28v5h-28z" fill="#b9d5ee"/><path d="m41 17h11v25h-11v-4h7v-17h-7z" fill="#b9d5ee"/><path d="m12 11h30v46h-30z" fill="#d8e6f1"/><path d="m6 21h42v22h-42z" fill="#fcdb00" transform="matrix(0 1 -1 0 59 5)"/><g fill="#f89c00"><circle cx="32" cy="19" r="2"/><circle cx="22" cy="32" r="2"/><circle cx="32" cy="45" r="2"/><rect height="2" rx="1" width="2" x="32" y="27"/><rect height="2" rx="1" width="2" x="26" y="37"/><rect height="2" rx="1" width="2" x="20" y="46"/></g><path d="m41 10a2.99 2.99 0 0 0 -5.021-2.2 2.977 2.977 0 0 0 -4.979-2.021 2.931 2.931 0 0 0 -3.368-.435 3.986 3.986 0 0 0 -7.264 0 2.978 2.978 0 0 0 -4.368 2.656 3 3 0 0 0 -3 3h3v15a2 2 0 0 0 4 0v-9a2 2 0 0 1 4 0v2a2 2 0 0 0 4 0v-8h13a3.021 3.021 0 0 0 0-1z" fill="#fdec96"/></svg>