<?xml version="1.0" encoding="iso-8859-1"?>
<!-- Generator: Adobe Illustrator 19.0.0, SVG Export Plug-In . SVG Version: 6.00 Build 0)  -->
<svg version="1.1" id="Capa_1" xmlns="http://www.w3.org/2000/svg" xmlns:xlink="http://www.w3.org/1999/xlink" x="0px" y="0px"
	 viewBox="0 0 512 512" style="enable-background:new 0 0 512 512;" xml:space="preserve">
	 <style>
		 #fill-color{
		 	fill:#F0710D;
		 }
	 </style>
<g>
	<path style="fill:#9CAEBB;" d="M134.68,97.103h33.045v35.31h-44.138v-24.217C123.586,102.07,128.553,97.103,134.68,97.103z"/>
	<path style="fill:#D0E8F9;" d="M283.429,131.836c-6.459,9.645-13.579,18.831-21.31,27.49
		c-13.078,14.452-32.601,14.48-32.601,96.673v35.31c0,9.751-7.904,17.655-17.655,17.655c-9.751,0-17.655-7.904-17.655-17.655
		v-98.997c-0.144-16.755-10.198-31.835-25.611-38.409c-14.929-7.049-26.106-20.177-30.685-36.038
		c-9.09-3.59-14.325-7.636-14.325-11.935v16.768c0,59.367,4.192,74.523,12.545,133.301l40.42,238.346
		c0,9.751,35.57,17.655,79.448,17.655s79.448-7.905,79.448-17.655l40.42-238.346c8.353-58.778,12.545-73.933,12.545-133.301v-16.768
		C388.414,118.674,343.39,129.309,283.429,131.836z"/>
	<path id="fill-color" d="M280.414,216.43c-12.102-11.932-26.859-20.828-43.061-25.957
		c-6.262,21.249-8.911,43.399-7.835,65.526v35.31c0,9.751-7.904,17.655-17.655,17.655c-9.751,0-17.655-7.905-17.655-17.655v-98.997
		c0-2.086-0.16-4.169-0.478-6.23c-23.563,2.477-45.572,12.932-62.379,29.632c1.414,13.999,2.982,27.616,4.782,40.285l40.42,238.346
		c0,9.751,35.57,17.655,79.448,17.655s79.448-7.905,79.448-17.655l40.42-238.346c0.463-3.264,0.866-6.769,1.305-10.14l-0.033-0.102
		C342.011,253.024,305.593,241.982,280.414,216.43L280.414,216.43z"/>
	<g>
		<circle style="fill:#B49313;" cx="203.035" cy="361.931" r="8.828"/>
		<circle style="fill:#B49313;" cx="308.966" cy="441.379" r="8.828"/>
		<path style="fill:#B49313;" d="M273.655,326.621h17.655c4.875,0,8.828,3.952,8.828,8.828v17.655c0,4.875-3.952,8.828-8.828,8.828
			h-17.655c-4.875,0-8.828-3.952-8.828-8.828v-17.655C264.828,330.573,268.78,326.621,273.655,326.621z"/>
		<path style="fill:#B49313;" d="M211.862,414.897h17.655c4.875,0,8.828,3.952,8.828,8.828v17.655c0,4.875-3.952,8.828-8.828,8.828
			h-17.655c-4.875,0-8.828-3.952-8.828-8.828v-17.655C203.035,418.849,206.987,414.897,211.862,414.897z"/>
	</g>
	<path style="fill:#F0F3F4;" d="M229.517,255.999v35.31c0,9.751-7.904,17.655-17.655,17.655l0,0
		c-9.751,0-17.655-7.905-17.655-17.655v-98.997c-0.144-16.756-10.198-31.835-25.611-38.409
		c-23.432-10.326-34.694-35.628-36.066-66.043c-2.141-47.457,34.504-89.378,81.984-87.817c22.665-0.424,44.342,9.267,59.141,26.439
		c7.087-6.715,16.784-9.947,26.483-8.828c19.137,0.852,34.459,16.173,35.31,35.31c5.953-6.347,14.61-9.419,23.233-8.245
		c13.243,2.848,22.203,15.23,20.769,28.7c-1.434,13.47-12.8,23.687-26.347,23.683c-27.765-2.683-54.648,10.613-69.368,34.307
		c-6.544,9.8-13.767,19.129-21.618,27.917C249.04,173.777,229.517,173.805,229.517,255.999"/>
	<path style="fill:#C9CED1;" d="M300.147,70.621c-2.955,0.005-5.716-1.471-7.353-3.931c-7.543-11.994-16.039-23.361-25.406-33.991
		c-3.409-3.459-3.383-9.023,0.058-12.45c3.442-3.427,9.005-3.43,12.45-0.006c10.229,11.405,19.458,23.669,27.586,36.655
		c1.805,2.707,1.974,6.188,0.44,9.058C306.389,68.824,303.401,70.617,300.147,70.621z"/>
	<path style="fill:#9CAEBB;" d="M368.568,92.034c-4.489,3.283-9.903,5.057-15.464,5.068c-27.764-2.683-54.648,10.612-69.367,34.307
		c-0.098,0.145-0.209,0.283-0.307,0.427c59.961-2.527,104.985-13.162,104.985-25.906C388.414,100.826,381.072,96.077,368.568,92.034
		z"/>
	<path style="fill:#C9CED1;" d="M167.724,88.276c-2.342,0.001-4.588-0.928-6.244-2.584s-2.585-3.902-2.584-6.244
		c0.032-29.239,23.727-52.934,52.966-52.966c4.875,0,8.828,3.952,8.828,8.828s-3.952,8.828-8.828,8.828
		c-19.493,0.019-35.291,15.817-35.31,35.31c0.001,2.342-0.928,4.588-2.584,6.244C172.312,87.348,170.066,88.277,167.724,88.276
		L167.724,88.276z"/>
</g>
<g>
</g>
<g>
</g>
<g>
</g>
<g>
</g>
<g>
</g>
<g>
</g>
<g>
</g>
<g>
</g>
<g>
</g>
<g>
</g>
<g>
</g>
<g>
</g>
<g>
</g>
<g>
</g>
<g>
</g>
</svg>
