<svg id="Layer_1" data-name="Layer 1" xmlns="http://www.w3.org/2000/svg" viewBox="0 0 587.01571 701.86651">
  <defs>
    <style>
      .cls-1 {
        fill: #7a6a40;
      }

      .cls-2 {
        fill: #fff;
      }
    </style>
  </defs>
  <title>chikilla</title>
  <g>
    <path class="cls-1" d="M6.76241,433.98743c2.24837-8.811-.55742-15.02033-8.98884-18.99036-7.28828-3.43182-11.29488-8.83136-7.86381-17.39081.35657-.88949-.00085-2.06238.34679-2.9588,3.50771-9.04489-.2072-15.32834-7.69651-20.07675-6.72134-4.26151-8.72217-9.64548-5.31162-17.18451,4.60672-10.18314,3.26524-19.12891-6.22171-26.237-5.46286-4.09308-6.0702-9.4454-2.47255-15.19574,6.24874-9.98779,5.54019-19.34506-2.6468-27.87137-5.132-5.34472-5.20031-10.61911-.52472-16.17138a4.17474,4.17474,0,0,0,.44643-.89145c6.227-12.83374,6.47029-12.96772-1.87815-28.13157-2.65261-4.81811-2.8232-8.43374.73763-12.487,1.41225-1.60755,2.08879-3.89774,3.58763-5.38651,6.209-6.16745,5.95208-12.77762,1.89805-19.86859-4.71093-8.24-5.02152-15.83847,3.25391-22.24689,1.28675-.99646,2.01936-2.68826,3.26236-3.76523,3.4842-3.01867,3.9988-6.51947,2.698-10.81567a125.95136,125.95136,0,0,1-3.75285-15.5282,7.47411,7.47411,0,0,1,1.77644-5.58279c3.54033-3.72773,7.81219-6.77179,11.25943-10.5718a10.51017,10.51017,0,0,0,2.53756-6.92355,129.24174,129.24174,0,0,0-2.37881-17.30575c-.5803-2.98.28135-4.63108,2.7128-6.17557,3.92971-2.49619,7.60373-5.39316,11.51586-7.91936C6.21866,96.27043,7.4006,93.61986,7.08,89.88448,6.6246,84.5787,6.66972,79.23056,6.23738,73.922c-.257-3.15541.98914-4.987,3.75458-6.24762,3.17825-1.44875,6.12321-3.518,9.40549-4.60526,5.38358-1.78328,7.60906-5.20135,7.563-10.76-.03855-4.65159.58028-9.305.75435-13.96331.11444-3.06249,1.32961-4.81833,4.44378-5.68525,4.31468-1.20108,8.44118-3.06822,12.74076-4.33659,3.35171-.98877,4.76416-2.90869,5.16046-6.38576.62128-5.451,1.94436-10.81855,2.70731-16.25831.42028-2.99663,1.82021-4.267,4.79439-4.62474C61.68841.55884,65.74614-.48974,69.86513-1.0816,73.69891-1.63248,75.637-3.87486,76.598-7.434c1.258-4.65927,2.86032-9.23073,3.98625-13.91881.83229-3.4655,2.5202-5.03669,6.21853-4.92134,4.15108.1295,8.32161-.45762,12.47864-.39553,3.17044.04737,4.84786-1.29832,5.96483-4.1621,1.99587-5.11709,4.49234-10.04644,6.33661-15.2124,1.14523-3.20791,3.02454-4.02944,6.07274-3.56119,4.115.63213,8.263,1.05867,12.36761,1.74744,3.23857.54346,5.40873-.546,6.98258-3.42747,2.70946-4.9607,5.70324-9.76754,8.36078-14.75456,1.30713-2.45292,2.78274-2.6789,5.26184-1.83578,4.40307,1.49744,8.9673,2.51362,13.41668,3.885,2.82735.8714,4.70813.08039,6.34568-2.36766,2.86693-4.28595,6.05182-8.35837,8.95189-12.62334,1.65867-2.43932,3.43577-3.26,6.27673-1.90368,4.05011,1.93355,8.37047,3.33146,12.31755,5.44065,3.08813,1.65019,5.22968,1.21106,7.43628-1.29668,3.19031-3.62562,6.56717-7.08632,9.80456-10.67148,2.09726-2.32256,4.19379-2.80957,6.97986-.95623,3.73932,2.48748,7.81189,4.47817,11.52158,7.00485,2.83307,1.92964,5.075,1.7798,7.5853-.46213,3.47116-3.10014,7.25473-5.85675,10.654-9.02892,2.46808-2.30316,4.43786-2.23956,6.881-.05631,3.34921,2.99291,6.99359,5.65566,10.341,8.65039,2.89621,2.59107,5.5203,3.0513,8.85266.59137,3.46787-2.56,7.41089-4.46748,10.96207-6.92618,2.65076-1.83528,4.379-1.25373,6.35654,1.03607,3.04428,3.52491,6.5036,6.69084,9.55679,10.20874,2.36231,2.72192,4.49466,3.8153,8.09305,1.78921,3.74252-2.10722,8.06671-3.1573,11.9209-5.09793,3.05917-1.54036,4.911-.78607,6.67618,1.84092,2.78476,4.1444,5.73269,8.17912,8.60818,12.26263,1.68448,2.3921,3.586,3.60834,6.77512,2.48652,3.75784-1.32186,7.91058-1.63575,11.52438-3.22355,4.49887-1.97666,6.56406-.40533,8.428,3.561,1.978,4.209,4.66025,8.0814,6.78574,12.22854,1.50561,2.93776,3.62594,4.16068,6.84948,3.69587,3.62082-.5221,7.32657-.67144,10.859-1.53854,4.96277-1.21821,7.35339.79351,8.83832,5.33165,1.39368,4.25932,3.47928,8.28724,5.03027,12.50169,1.19806,3.25546,3.29288,4.75419,6.74747,4.77289,4.32861.02342,8.65561.36971,12.98413.38875,2.74783.01208,4.209,1.06881,4.9296,3.81857A151.71431,151.71431,0,0,0,434.86682-6.303a8.70333,8.70333,0,0,0,4.78128,4.646,75.30521,75.30521,0,0,0,13.69254,2.72481c3.04571.36832,4.35266,1.68954,4.77173,4.61146.78015,5.4394,1.87066,10.83391,2.67468,16.27038.55017,3.72021,2.30456,6.0289,6.13959,6.85148,2.75415.59075,5.39715,1.69135,8.09979,2.53235,8.01507,2.49414,8.01654,2.48793,8.4494,10.97275.13568,2.66029.63879,5.36165.34314,7.97282-.86548,7.64377,3.22949,11.20243,9.66431,14.1781,11.987,5.54323,11.63983,2.423,10.33508,17.19864-.918,10.39594,1.69025,17.60246,11.58716,21.874,5.71789,2.46782,8.002,6.81558,5.90631,13.27142-3.74951,11.55034-2.02588,21.38669,9.52533,27.91616,4.502,2.54478,5.88867,6.45164,3.69409,11.42a29.42131,29.42131,0,0,0-1.07977,4.3591c-3.91211,14.73456-4.10535,14.922,6.61749,25.72931,4.24622,4.27969,4.95831,8.05856,2.6449,13.5849-6.84882,16.36124-6.837,16.57721,3.66266,30.82547,3.1618,4.29062,3.5379,7.5997.60626,12.00894a58.54355,58.54355,0,0,0-6.27417,12.44717,11.39022,11.39022,0,0,0,.34662,7.4997c2.06567,5.0715,5.08142,9.75458,7.17273,14.81787a8.13743,8.13743,0,0,1-.37256,6.24365c-2.66345,4.78223-6.17554,9.09192-8.83856,13.87439a10.06406,10.06406,0,0,0-.9737,6.86765,125.5518,125.5518,0,0,0,5.47321,14.97241c1.44378,3.46011,1.26275,6.35431-1.41651,9.12228-1.84887,1.91007-3.148,4.46289-5.22332,6.02286-6.74836,5.07272-7.519,11.57822-4.326,18.56726,4.7724,10.44626,2.48938,18.307-7.32288,24.15424-5.43683,3.2399-6.94409,7.986-5.324,14.03.68518,2.55618.41308,5.40252,1.27887,7.87042,2.63281,7.50488-.59058,12.15881-7.08454,15.108-8.64343,3.92535-12.22021,10.53278-10.03052,19.58887,2.57,10.62854-1.73858,16.546-11.6358,19.42022-6.667,1.93622-9.01172,6.54352-8.55,13.23291.192,2.78235-1.00433,5.68055-.70318,8.43128.694,6.33954-1.861,9.66839-8.10193,10.55548-10.2038,1.45032-14.73883,6.79169-15.83606,17.687-1.3772,13.67456,1.17993,11.63568-13.34134,13.83588-8.49405,1.28705-11.53909,4.96332-13.24231,12.861-2.89472,13.42285-3.44406,13.594-17.12448,13.62469-6.00376.01349-9.7768,1.54291-11.39368,7.72876-1.00049,3.82752-3.125,7.34772-4.51861,11.09015-1.19535,3.21015-2.71512,4.97058-6.63935,4.03382-3.85623-.92054-7.95785-.77314-11.85913-1.55609-3.81314-.76526-5.92947.72552-7.602,3.94128-2.37927,4.57489-5.10013,8.97113-7.52072,13.52576-1.401,2.636-2.99066,3.47912-6.02661,2.364a66.48229,66.48229,0,0,0-12.981-3.54431,8.04449,8.04449,0,0,0-6.2525,2.11743,126.32128,126.32128,0,0,0-9.12622,12.48706c-1.77426,2.578-3.73905,3.45386-6.74216,1.92566-3.40347-1.73187-7.00546-3.069-10.45456-4.7171-3.65713-1.74762-6.809-2.04022-9.73422,1.56653-2.92887,3.61132-6.32437,6.84063-9.432,10.312-1.81219,2.02435-3.53015,2.64734-6.03015.93237-3.699-2.53741-7.73163-4.593-11.39716-7.17334-3.33786-2.34961-6.00067-1.90295-8.89068.73016-3.19116,2.90747-6.78208,5.38-9.93527,8.32422-2.66278,2.48639-4.84519,2.14588-7.372-.0675-3.37928-2.96015-6.99356-5.6543-10.33954-8.6496-2.47406-2.21484-4.70441-2.5957-7.56592-.61932-3.55243,2.4533-7.53317,4.30413-10.99448,6.86694-3.595,2.6618-5.8753,1.50671-8.3583-1.5033-2.7475-3.33062-5.91745-6.30932-8.746-9.57751-2.12054-2.45013-4.23776-3.29755-7.39688-1.73859-4.16848,2.057-8.60978,3.55616-12.8125,5.55072-2.39044,1.13459-3.87735.91046-5.42424-1.37494-2.79472-4.129-5.99586-7.98169-8.82519-12.089-2.2749-3.30256-4.77637-4.68482-8.86264-3.05207-3.37154,1.34717-7.15575,1.65521-10.53961,2.97943-4.1296,1.616-6.17646-.1723-7.92568-3.55194-2.2189-4.28723-4.73822-8.41919-6.95309-12.70837-1.51635-2.93653-3.53637-4.02857-6.88642-3.369-4.23205.83313-8.5804,1.06494-12.82643,1.84131-2.81874.51544-4.35078-.37232-5.36545-3.00946-1.91029-4.965-4.14454-9.80585-6.03546-14.77765-1.28192-3.37054-3.345-5.139-7.08276-5.06073-3.15817.0661-6.344-.5368-9.48242-.32458-5.26978.35638-8.35984-1.37073-9.35366-6.96656-.80935-4.55725-2.62542-8.92724-3.80662-13.42969-.83374-3.17791-2.65785-4.67675-5.95091-5.00567-4.1306-.4126-8.20622-1.34949-12.32972-1.86786-3.13964-.39471-4.693-2.07654-5.16528-5.10834-.7942-5.09826-1.82873-10.16266-2.4951-15.27612-.47843-3.67133-1.88823-6.2273-5.69776-7.26886-3.04584-.8327-5.91939-2.48853-8.9964-2.97376-6.2215-.98126-7.97772-4.78985-8.0146-10.43634A75.46038,75.46038,0,0,0,26.367,461.07092a10.45077,10.45077,0,0,0-4.26282-5.95654,58.55764,58.55764,0,0,0-11.19062-5.47522c-3.97729-1.54181-5.17538-4.18811-4.62784-8.17187C6.625,438.99878,6.61541,436.48236,6.76241,433.98743ZM523.956,261.55127c-.05816-50.26413-8.36847-97.57086-26.992-142.88066-13.26965-32.28417-30.75452-61.95094-53.53641-88.461-34.12826-39.7132-75.34952-68.56221-126.09616-83.11a222.92058,222.92058,0,0,0-111.67493-3.25988c-38.84043,8.69307-73.40783,26.60333-103.88076,52.16759C57.97343,32.75386,27.78841,79.02386,8.413,132.42229a358.38424,358.38424,0,0,0-19.90351,90.4514c-5.14563,57.152,1.439,112.74856,21.8514,166.45065C33.687,450.69208,70.57269,501.761,125.75342,538.554c34.36516,22.91363,72.12,36.52581,113.37,39.31036,55.59912,3.75305,106.06443-11.43256,151.68558-43.10816,33.03177-22.9345,59.33038-52.18512,80.5882-86.18682,21.05194-33.67237,35.37713-70.14792,43.99432-108.70606A343.385,343.385,0,0,0,523.956,261.55127Z" transform="translate(38.0362 92.56599)"/>
    <path class="cls-2" d="M523.956,261.55127a343.385,343.385,0,0,1-8.56445,78.312c-8.61719,38.55814-22.94238,75.03369-43.99432,108.70606-21.25782,34.0017-47.55643,63.25232-80.5882,86.18682-45.62115,31.6756-96.08646,46.86121-151.68558,43.10816-41.25006-2.78455-79.00486-16.39673-113.37-39.31036C70.57269,501.761,33.687,450.69208,10.36086,389.32434c-20.41242-53.70209-26.997-109.29867-21.8514-166.45065A358.38424,358.38424,0,0,1,8.413,132.42229C27.78841,79.02386,57.97343,32.75386,101.77573-3.99263c30.47293-25.56426,65.04033-43.47452,103.88076-52.16759a222.92058,222.92058,0,0,1,111.67493,3.25988c50.74664,14.54776,91.9679,43.39677,126.09616,83.11,22.78189,26.51,40.26676,56.17681,53.53641,88.461C515.58752,163.98041,523.89783,211.28714,523.956,261.55127ZM455.19543,284.8999c-4.15155-2.277-7.24066-4.78167-10.74807-5.71615-6.16062-1.64151-11.34613,1.358-15.96823,5.24636-9.25745,7.78791-14.09436,18.32166-18.41346,29.26044-3.81869,9.67151-8.65875,18.81888-17.038,25.42948-4.57514,3.60946-8.95108,2.37841-9.41791-3.3a123.52235,123.52235,0,0,1,.65219-24.73126,29.55663,29.55663,0,0,1,5.20453-12.64539c4.14917-5.99893,9.31848-11.28336,13.91916-16.98084,8.395-10.3963,16.5423-21.0653,20.78949-33.89035a46.88593,46.88593,0,0,0,2.29077-17.07211c-.39914-6.86645-6.736-9.56866-12.41186-5.62881a42.61291,42.61291,0,0,0-10.038,9.56314c-15.94791,21.81476-25.78152,46.54193-32.9682,72.3349-3.35113,12.02719-8.52356,22.76028-17.60791,31.3258-5.5896,5.27042-10.63892,3.64283-11.31686-3.99991-.61029-6.88009.29693-13.9103.72366-20.8627.44629-7.27053,4.01788-12.89633,8.5227-18.62057q15.24838-19.37613,28.87549-40.006a34.51589,34.51589,0,0,0,5.66468-22.89047c-.892-8.06043-6.86927-11.09812-13.45234-6.457a41.3387,41.3387,0,0,0-9.83972,9.76142c-16.01538,22.75046-26.32794,48.11673-33.31579,74.90106A59.9034,59.9034,0,0,1,312.465,338.31165a11.9799,11.9799,0,0,1-4.01871,2.88812c-1.57569.55-3.75595.90426-5.04907.2001-.89716-.48855-1.15162-2.96551-.96094-4.46066a36.48318,36.48318,0,0,1,1.89963-7.23059c4.9645-14.31818,10.02838-28.602,14.97387-42.92664a37.63693,37.63693,0,0,0,1.7277-7.26245c.44622-3.34823-1.18192-4.88565-4.64783-4.77176-7.43793.24439-11.68173,3.07263-14.06928,10.45313-3.02295,9.34466-5.42672,18.89123-8.5105,28.21414-3.56066,10.76465-9.267,20.3801-18.1264,27.60034-2.37219,1.93329-6.59793,3.45084-9.31366,2.71771-5.68478-1.53451-7.69861-16.26645-2.66772-19.531,12.55761-8.14853,19.64315-20.58106,27.08914-32.8038a73.51263,73.51263,0,0,0,4.88428-9.25544c1.17508-2.74734.23693-4.84579-2.93964-5.63733-7.02792-1.75131-12.06512.59781-16.23633,6.52216-4.77283,6.77887-9.99478,13.26254-15.36554,19.58218-1.102,1.29676-3.72452,1.30136-5.64615,1.90162-.24255-1.86738-1.17132-3.97822-.61-5.56037,2.55453-7.19986,4.83935-14.63165,8.5072-21.26941,6.03006-10.91266,13.66739-20.95694,19.41348-31.99887,3.11-5.97619,4.31229-13.17975,5.212-19.98343.53827-4.07-.33118-9.36831-5.33621-10.78875-5.14133-1.45917-8.47693,2.41024-10.72486,6.39694a214.298,214.298,0,0,0-11.18741,21.747c-10.47927,24.86016-20.52413,49.903-30.84805,74.82928-3.75009,9.05435-9.03226,17.1069-17.24319,22.7724-1.43936.99323-4.10364,1.6412-5.40885.9502-1.05993-.56116-1.34866-3.39835-1.224-5.173a26.928,26.928,0,0,1,1.6897-6.76022c4.253-12.27588,8.61316-24.51462,12.86881-36.78958a116.6649,116.6649,0,0,0,3.86233-12.38785c.93512-4.14108-.90338-5.91019-5.13012-5.69443-7.39866.37772-11.22074,3.10352-13.55408,10.37671-2.89932,9.03735-5.52954,18.16269-8.17838,27.27835a58.70956,58.70956,0,0,1-13.31878,23.198,28.7987,28.7987,0,0,1-7.83861,6.02066c-3.34155,1.74789-5.778.1214-5.40035-3.63974a58.06529,58.06529,0,0,1,2.68265-11.613c2.66814-8.4071,6.24219-16.58352,8.20453-25.139,1.456-6.348,1.48491-13.17136,1.1503-19.732a7.24673,7.24673,0,0,0-8.71211-6.99094c-3.72411.56723-7.27745,2.705-10.7162,4.50846-1.74244.91385-3.06377,2.63064-4.57549,3.9844l-1.01346-.88952c2.20369-3.85831,4.32965-7.76355,6.626-11.56586,6.1938-10.25546,12.74417-20.30823,18.5891-30.75687a26.904,26.904,0,0,0,2.778-19.88119c-.6889-2.71878-2.99444-6.34787-5.27252-6.97061-2.25136-.61545-5.73622,1.60257-8.04749,3.39377-2.00244,1.55184-3.38894,4.1091-4.58683,6.45709-20.57586,40.33139-36.14615,82.671-50.15587,125.62533-.91939,2.81888-1.77207,5.93021-1.47411,8.78208.20514,1.96368,2.09821,4.79388,3.85036,5.36956,6.98437,2.29474,10.91163-.22015,13.33871-7.10433,4.70186-13.33616,9.09755-26.8173,14.626-39.81037,3.07648-7.2305,7.98224-13.73636,12.5237-20.24789.99617-1.42832,3.94638-1.49375,5.99672-2.1868.14877,2.049.94808,4.32236.33228,6.1076-2.49561,7.235-5.78292,14.20652-8.09905,21.49115a152.80232,152.80232,0,0,0-5.96329,23.57138c-1.00019,6.7179.20708,13.90342,7.1471,17.32087,6.997,3.44549,12.90236-.51718,18.09428-5.015,3.58237-3.10339,6.84365-6.57748,10.5764-10.20459.25939,1.25363.52173,2.17047.63047,3.10517.616,5.295,1.70733,10.26642,7.482,12.48864,5.79535,2.23017,9.91022-.72845,13.87479-4.33407,1.836-1.66983,3.76947-3.23255,5.26962-4.51193,1.26541,3.37609,1.50314,7.24615,3.49957,8.69833,4.95246,3.60226,12.57053.52093,14.53729-5.32632,2.44236-7.26124,4.59577-14.61927,6.9318-21.917a35.71478,35.71478,0,0,1,1.6803-3.75714c1.27966,1.78494,1.30258,3.44586,1.83548,4.92273,2.57247,7.12876,4.41165,14.71585,8.17608,21.16895,4.178,7.16205,11.5618,7.7528,18.02713,2.53293,3.7302-3.01163,6.91986-6.6969,10.3179-10.11374,1.30756-1.31482,2.5181-2.7262,4.3527-4.7255.30511,2.27161.51672,3.39447.59768,4.52671.38642,5.40414,1.812,10.24874,7.25485,12.70263,5.69529,2.56763,10.20841-.26788,13.93732-3.9722,4.82227-4.79034,9.105-10.12521,13.59555-15.24719,1.123-1.281,2.15222-2.64429,3.37348-4.15378,1.40747,6.00724,2.16827,11.48072,4.00656,16.56461,2.58017,7.13544,8.33981,9.56924,15.25628,6.39371a37.09979,37.09979,0,0,0,10.41471-7.52771c4.1365-4.13919,7.61837-8.93262,11.501-13.59018,1.18955,5.0422,1.79575,9.887,3.493,14.3135,3.14948,8.214,9.92118,10.731,17.24512,5.96958,5.057-3.28757,9.28119-7.91944,13.63648-12.19611,2.13659-2.09805,3.72485-4.75461,6.126-7.89758,2.2912,8.92053,2.8292,17.99255,11.67188,21.40567,9.8689,3.80926,14.86551-4.42969,20.748-10.7988.69848,1.84757,1.08462,2.90119,1.49365,3.94583,2.92462,7.46915,10.85171,10.26343,17.07541,5.30246A89.05187,89.05187,0,0,0,487.202,316.24377c.67511-2.19784-.81269-5.06012-1.29816-7.61447-1.63342,1.86692-3.56384,3.55454-4.82611,5.64551-1.62531,2.69226-2.29065,6.018-4.12061,8.52188A196.71658,196.71658,0,0,1,463.243,339.74948c-1.3866,1.51178-4.4317,1.50235-6.71612,2.19061-.28534-2.31472-1.36432-4.87994-.72571-6.903,3.80615-12.05756,8.00122-23.99255,12.08221-35.96311,1.82758-5.36071,3.8772-10.65359,5.49506-16.076,2.01379-6.74924-.33551-9.11316-7.1333-7.89435A13.21233,13.21233,0,0,0,455.19543,284.8999ZM77.28423,188.21637a51.11414,51.11414,0,0,1-1.12583-6.94156c-.0878-5.49109.23329-10.99145.04761-16.4765-.05469-1.6149-.97064-4.25818-2.00156-4.53549-1.55945-.4195-3.65069.638-5.34923,1.42694a7.1007,7.1007,0,0,0-2.42681,2.47415c-8.833,12.627-12.75339,26.32013-8.38,41.55185.9308,3.24185.32642,5.53879-1.3902,8.32834C39.13549,242.51849,29.355,273.195,30.96342,306.97012c.74994,15.74836,4.19379,30.7403,13.7677,43.66968,6.7651,9.13614,15.41671,14.93945,27.42957,14.75678,17.70168-.26914,30.22382-8.75425,37.66405-24.28574,6.23144-13.00824,7.6557-26.68414.01828-39.79959-4.27107-7.33453-10.9137-11.69309-19.80741-11.17029-5.61645.33017-7.20988,3.60574-4.50332,8.48209.64644,1.1647,1.36052,2.29413,1.96242,3.48089,6.30487,12.43155,3.73315,30.6084-5.59031,39.62592-7.68853,7.43619-18.65628,6.17358-23.39638-3.42932a51.954,51.954,0,0,1-5.30032-18.0217c-2.64658-30.465,4.81752-58.79874,19.3656-85.46512,1.61577-2.96167,3.1847-3.70737,6.22589-1.60916,8.50061,5.86475,18.16852,8.05606,28.36542,8.316,22.13985.56454,37.85509-13.0546,40.41867-35.04608,1.97585-16.94968-7.25454-32.00476-21.68294-34.64731-11.58576-2.12192-22.57681.34155-32.73095,6.13226C88.00795,180.90292,83.15985,184.39581,77.28423,188.21637ZM230.06665,409.82013c2.20786-1.1669,4.03406-1.64706,5.15067-2.80911,4.09918-4.266,3.86343-10.74073-1.115-13.82828-3.317-2.05722-8.01626-4.1-11.44326-3.31088-7.42783,1.71038-14.43613,5.24249-20.84626,7.73083,5.66169,15.89572,4.50239,30.977.81476,45.31,5.50867.39758,11.04581.06482,16.18164,1.34369,7.27222,1.81085,12.88437-.26264,17.50519-5.44824,8.05542-9.04,9.69571-15.59937-.38885-23.53034C234.50891,414.16364,233.27155,412.82166,230.06665,409.82013Zm56.43726,132.19031c19.31054,1.91925,51.36978-23.83222,57.82638-38.96839-1.78961-1.09161-3.59756-2.19439-6.12573-3.73657a24.7407,24.7407,0,0,0,3.9017-2.11713c1.90759-1.6621,3.6705-3.49029,5.492-5.25122-1.93949-1.59082-3.696-4.19574-5.85233-4.58471-6.82483-1.23108-13.79565-1.66919-20.71652-2.348-8.90619-.87347-17.82123-1.657-26.72717-2.53289-3.617-.35572-7.22016-.85248-10.82959-1.285a3.72943,3.72943,0,0,0,2.46456,2.34766c13.90757,4.40338,27.82868,8.76379,41.72919,13.18927a29.83008,29.83008,0,0,1,3.84293,1.84027c-.855,1.04669-1.73465,2.07446-2.559,3.14484a26.76686,26.76686,0,0,0-3.06125,4.2127c-1.172,2.3772-1.74939,5.06073-3.01288,7.37775C314.872,527.97705,302.43314,537.088,286.50391,542.01044ZM226.45148,81.01981l.294-1.10692c-15.49194-5.342-30.98385-10.684-46.26613-15.95375,2.49506-4.01056,4.90934-6.728,6.0358-9.90242,4.993-14.07047,14.22682-24.228,27.44716-30.85414,3.352-1.68,6.93253-2.904,10.98151-4.574-19.27756-.97546-46.33182,20.28762-56.48606,39.56971l5.68282,4.22821c-1.85809.95941-3.05518,1.27212-3.80826,2.02748-1.77556,1.7809-3.33951,3.77277-4.989,5.67931,1.67752,1.44413,3.18406,3.81926,5.06343,4.16442,6.64442,1.22034,13.40579,1.85639,20.14287,2.50611,7.75447.74782,15.54557,1.13046,23.2906,1.95532C218.07614,79.21031,222.24973,80.24712,226.45148,81.01981ZM351.67255,520.64374c9.08242-2.10614,15.86389-7.46265,21.7594-14.17462a19.15507,19.15507,0,0,1,4.92944-3.90766c2.72452-1.53869,6.14154-2.15515,8.41516-4.13739,11.97253-10.43829,18.59979-24.14856,22.5636-39.21216,1.40655-5.34539,1.84668-10.94506,2.73712-16.48516-7.33932-.5326-11.117,2.05865-11.96649,7.9555a67.4886,67.4886,0,0,0-.69489,11.94086c.39582,11.21673-3.52523,20.87646-10.2904,29.50134-2.32755,2.96729-5.20038,5.5069-7.8241,8.24182l-1.476-1.02026c5.57892-10.31946,11.349-20.572,12.56595-32.45252-8.26886-2.06829-12.79767,1.03046-13.15952,9.56739-.55691,13.13964-5.00064,24.34027-14.85821,33.18945C360.20761,513.3902,355.91022,516.9837,351.67255,520.64374ZM132.73412,62.192l1.13688.82546c-.59405,1.40443-1.23948,2.78964-1.77371,4.21647-3.07816,8.22126-6.17627,16.4356-9.16989,24.68773-1.35191,3.72661.77539,4.3833,3.84395,3.96915,4.0236-.54306,6.837-2.52953,7.67268-6.6888a46.31158,46.31158,0,0,0,1.28052-7.862c.332-13.64836,6.96429-23.97834,16.80392-32.70557,2.96852-2.6329,5.891-5.3177,8.8346-7.97873-9.25969,2.442-15.6371,8.611-21.73943,15.21442a19.4115,19.4115,0,0,1-4.64865,3.31625c-2.19911,1.26907-4.93513,1.88-6.72374,3.54408-11.72523,10.90885-18.19752,24.8149-21.83307,40.12763-1.27835,5.38429-1.74507,10.96126-2.58542,16.47017,6.756.72786,10.10671-1.31925,11.04035-6.88649a81.6238,81.6238,0,0,0,.76607-13.40367c.00689-13.13518,4.75779-24.31467,13.59317-33.86383A37.35832,37.35832,0,0,1,132.73412,62.192Zm86.05177,70.51886c1.97839-2.27341,4.74292-4.07783,4.94122-6.13022.14768-1.52813-2.77441-3.79059-4.76788-5.0077a18.56563,18.56563,0,0,0-21.04465,1.45862c-8.86806,6.87274-12.52769,19.905-8.60351,30.63774,4.24035,11.59742,13.90158,17.27641,24.89825,14.63545,6.24411-1.49957,11.049-6.57858,11.30283-12.77271-1.77939,1.46476-3.15339,2.529-4.45319,3.67734-5.65424,4.99521-15.39209,4.474-20.2811-1.1095-6.16083-7.036-6.64758-21.46768-.97812-28.99955,5.4-7.17394,11.93518-6.98036,16.81418.49176C217.13434,130.38913,217.70071,131.15616,218.78589,132.71089Zm50.71042,29.93584c1.06122,1.63632,1.53628,3.11941,2.54165,3.73163,1.29477.78836,3.47434,1.66705,4.45057,1.0975,1.75527-1.02411,4.28-2.53467,2.20385-5.51514-3.82394-5.48956-2.50308-11.82721-1.06466-17.25413,1.17544-4.43482.08868-6.04225-3.15989-7.81648-1.74859-.955-3.28466-2.42841-5.1253-3.04464-1.45914-.48849-3.75348-.68052-4.77567.131a56.8101,56.8101,0,0,0-8.95642,8.62207,17.65041,17.65041,0,0,0-.48892,20.97113c3.93259,5.421,6.15683,5.6976,11.22739,1.4357C267.213,164.27908,268.15582,163.64636,269.49631,162.64673Zm48.4353,371.99548q.26757.71494.53513,1.42993c3.03976-.8421,6.22729-1.34344,9.0932-2.58636,11.32162-4.91016,19.37967-13.94714,27.47781-22.74463a125.063,125.063,0,0,0,13.06448-16.92249c3.48655-5.4143,1.853-7.67919-4.69033-7.91748-7.32526-.26678-11.132,2.4245-11.858,9.81586-1.39035,14.15527-8.66549,24.12293-20.56546,31.19116Q324.46466,530.78309,317.93161,534.64221Zm-124.477-508.1819-.50678-1.27157a50.65327,50.65327,0,0,0-5.86828,1.39513c-8.86566,3.21413-15.45032,9.5727-21.74768,16.22746-7.636,8.06936-15.6124,15.91789-20.11389,26.37425-2.03109,4.71791-.93485,6.3965,4.17305,6.76695,7.50917.54459,11.87588-2.54182,12.33935-10.31274.93369-15.65453,9.83641-25.55753,22.31377-33.26325C187.19649,30.42969,190.31856,28.43372,193.45456,26.46031Zm19.86508,227.12486c.92807,1.49955,2.13532,5.21216,4.68936,7.14628,3.45938,2.61969,7.32685.39086,10.46094-1.94776,5.90268-4.40463,8.8342-12.81695,6.97745-19.44922-1.76129-6.2912-6.755-8.42691-12.21948-4.88064C217.151,238.39755,213.98859,244.212,213.31964,253.58517Zm96.75473-2.78408c.06482,8.28247,4.376,12.19693,10.498,10.39261,8.62954-2.54334,14.53485-15.01294,11.02936-23.28956-2.12629-5.0202-6.76331-6.67013-11.44248-3.69873A21.23053,21.23053,0,0,0,310.07437,250.80109ZM158.77245,450.728l-1.08672.94317c1.974,2.65576,3.76151,5.478,5.95662,7.93628a85.09818,85.09818,0,0,1,15.93057,25.12177,107.50807,107.50807,0,0,0,10.2461,18.74017c1.97224,2.99414,5.79014,5.4278,9.52232,3.01068,3.698-2.395,3.17236-6.61175,1.18133-9.88513a63.04325,63.04325,0,0,0-8.23513-10.55737c-7.44939-7.82477-15.23322-15.33033-22.73221-23.1092C165.792,459.02454,162.35631,454.80481,158.77245,450.728ZM85.90059,388.70023l-1.49333,1.3515a20.67591,20.67591,0,0,0,1.51072,2.33969c12.26773,14.451,20.66185,30.32525,20.18741,50.056-.19626,8.16174,9.93267,14.4638,17.33267,11.39191.93181-.38678,1.91213-2.837,1.53354-3.81244-1.4282-3.68006-2.929-7.50525-5.269-10.62653-7.96656-10.62622-16.52932-20.798-21.509-33.37866a51.82474,51.82474,0,0,0-5.87808-10.39032C90.52911,393.0751,88.06413,390.993,85.90059,388.70023ZM416.75885,175.38681a12.23961,12.23961,0,0,0,.30377-2.30612c-1.14136-1.59769-2.30334-3.18064-3.46292-4.76526-10.2309-13.98135-17.39969-28.92778-16.897-46.925.23926-8.56491-6.551-14.00955-14.70014-13.38351-3.31628.25476-4.80047,1.95955-3.52191,4.90568a103.04849,103.04849,0,0,0,6.64066,12.74164c5.01693,8.19348,10.51535,16.09627,15.41153,24.35815,3.71933,6.27608,6.65356,13.01412,10.279,19.35106C412.0054,171.44977,414.26849,172.92426,416.75885,175.38681ZM308.79657,475.18823l-.05536.77375c1.24222.25244,2.47373.59564,3.72827.74334,13.22858,1.55762,26.44562,3.241,39.70111,4.52539a39.91973,39.91973,0,0,0,12.3657-.71313,13.30978,13.30978,0,0,0,6.76953-4.528c2.38064-2.93,1.6597-6.21106-2.51743-6.36023a113.551,113.551,0,0,0-17.23706,1.04938c-8.72836,1.02777-17.39337,2.59912-26.12451,3.59589C319.92041,474.90332,314.34244,474.90521,308.79657,475.18823Zm36.64209-363.9666q.63537-.402,1.27078-.804a68.05254,68.05254,0,0,0-4.59762-6.82918c-6.98764-8.15266-12.908-16.85928-16.16007-27.25692a56.30661,56.30661,0,0,0-4.90643-10.90174,37.90692,37.90692,0,0,0-6.72537-9.174,7.53518,7.53518,0,0,0-6.6659-1.23865c-1.44259.61045-2.93893,4.21558-2.39462,5.798,1.46945,4.272,3.35349,8.74463,6.25989,12.11383,8.34591,9.675,17.34161,18.78641,25.945,28.2439C340.33527,104.3288,342.79239,107.86125,345.43866,111.22163ZM202.51834,86.81317l.06751-.84665c-1.18808-.248-2.36557-.58114-3.56595-.73094-12.68694-1.58333-25.36022-3.30774-38.07718-4.60055a36.26138,36.26138,0,0,0-12.28911.77256c-2.38722.60015-4.73029,2.90839-6.25159,5.04779-2.08484,2.932-.95918,5.71451,2.72895,6.11611,3.89894.42453,8.07806.76747,11.80322-.17061,11.166-2.81186,22.30151-5.2375,33.92042-4.87038C194.73108,87.653,198.62979,87.07237,202.51834,86.81317ZM139.86508,431.97473l-1.4349.80109a6.45353,6.45353,0,0,0,.63163,2.1394c10.20162,13.37439,15.2759,28.94477,19.75655,44.86786a52.68187,52.68187,0,0,0,6.71556,13.74127c1.05043,1.63855,4.05724,2.023,6.17255,2.97895.756-2.00141,2.63055-4.41254,2.07357-5.933a118.39453,118.39453,0,0,0-8.39024-18.85864c-5.07024-8.72137-10.96722-16.96039-16.464-25.4361C145.85539,441.54114,142.88213,436.74371,139.86508,431.97473Zm176.684,83.83319c-8.5635-4.98144-20.34835-1.602-23.80374,6.03015-2.68616,5.93329-5.9718,11.24811-12.17908,13.86139-4.42822,1.86438-9.06994,3.23462-13.65,4.72168-5.22009,1.69489-10.47754,3.27466-15.71875,4.90448.80084,1.16089,1.28778,1.24488,1.73618,1.14881,18.79733-4.02472,36.9696-9.874,53.367-20.09064C310.26019,523.91681,313.025,519.53241,316.54913,515.80792Zm34.3364-64.99542c14.27832-3.26758,27.80484-6.29761,41.292-9.49377,3.53683-.83808,7.44931-1.49054,10.28311-3.50367a21.58327,21.58327,0,0,0,6.63083-8.638c1.402-3.14349-.50723-5.30267-4.14856-4.26727a63.35528,63.35528,0,0,0-10.2211,3.78821c-10.76031,5.19983-21.43265,10.58264-32.114,15.94458C358.82068,446.54364,355.10464,448.58624,350.88553,450.8125ZM300.5498,87.09288l1.359-1.96555c-1.30008-1.07853-2.55407-2.21925-3.90878-3.2241-4.33551-3.21587-9.21637-5.88081-12.95572-9.67577-6.74487-6.84526-12.45062-14.72908-19.3219-21.42886-3.41974-3.3344-8.31708-5.33087-12.81881-7.313-2.80707-1.236-4.79673.21605-4.59946,3.70277.37741,6.66965,8.59195,15.57552,15.25421,15.60067,6.89728.026,12.088,3.01533,16.73309,7.58015,3.55594,3.49452,6.88456,7.253,10.68189,10.45867C293.86658,83.27029,297.33646,85.02963,300.5498,87.09288ZM205.96286,474.83557q-.63478.94382-1.26953,1.88764c1.07757.85168,2.02927,2.03,3.25326,2.50177,7.55527,2.91192,13.22751,8.243,18.488,14.10913,3.55451,3.96374,6.88574,8.13159,10.51358,12.02484,5.2703,5.65582,11.02167,10.74115,18.92328,12.33661,4.26611.86139,5.55554-.63623,4.60574-4.86512-1.54-6.85662-8.32705-13.5473-15.338-13.81567-7.94693-.30408-13.866-4.00647-19.32312-9.14337a134.06246,134.06246,0,0,0-9.96609-9.07086C212.8147,478.47266,209.27786,476.79877,205.96286,474.83557ZM257.28168,15.556q-.34-.71929-.68-1.43856C238.1,18.382,220.33948,24.60152,204.36145,35.1671c-2.67673,1.77-4.79993,4.59373-6.69788,7.27148-2.52685,3.565-1.75729,4.94719,2.48417,5.52439,8.68866,1.18239,15.21685-2.31581,18.50393-10.60376,2.664-6.71678,7.553-10.8399,13.96323-13.30439,5.10608-1.9631,10.43524-3.33867,15.62823-5.08556C251.29355,17.94312,254.27127,16.701,257.28168,15.556Zm-95.959,96.20531-.39285-.31615c-9.356,2.62288-18.68621,5.34308-28.07728,7.83385-6.08584,1.61412-12.34312,2.61688-18.36708,4.4173a10.88925,10.88925,0,0,0-7.94375,8.80426c-.85463,4.61178,1.02089,6.559,5.43843,5.16287a61.37989,61.37989,0,0,0,9.53215-4.24061q14.79625-7.65318,29.48306-15.51691C154.522,116.01454,157.885,113.81834,161.32271,111.76126Zm131.84077,16.46986c2.30359-.4412,4.73981-.23077,5.87381-1.3453.863-.84821.53537-3.56041-.077-5.12439-1.35987-3.47289-4.23053-3.557-6.94806-1.76979-2.78934,1.83441-8.18927,1.67691-6.169,7.661.965,2.85831,2.41193,6.261-2.35159,7.7084-.21814.06629.16739,3.04151.72378,4.488.61573,1.60076,2.47065,2.96982,2.53736,4.49443.29028,6.63268.15509,13.28547.111,19.93055-.01547,2.33654.04706,4.3424,3.26477,4.32357,3.06949-.018,3.43094-1.76367,3.39047-4.24115-.10308-6.31137-.06713-12.62518-.06613-18.938.00046-2.80893-.52154-5.91228,3.97019-5.84383.63641.00969,1.66159-1.46089,1.82361-2.36832.11834-.6627-.87674-2.19124-1.39026-2.19792C291.874,134.93077,293.44513,130.60934,293.16348,128.23112ZM117.52258,411.06781q-.87981.47625-1.75963.95258a84.25288,84.25288,0,0,0,4.72594,8.48913c5.611,7.88959,8.77826,16.6438,10.82005,26.06616a157.44408,157.44408,0,0,0,6.61571,21.39313c1.5875,4.266,4.105,8.24335,9.04607,10.23755,3.94029-7.74823,1.64883-14.43658-2.18991-20.99384-6.62279-11.31292-13.19094-22.65783-19.82846-33.962C122.54428,419.14941,120.00305,415.1264,117.52258,411.06781Zm275.29868,38.63336c-7.58859-1.892-13.73432.47156-20.043,2.71912-8.88693,3.16614-17.93143,5.9-26.95248,8.676-5.37653,1.65448-10.83719,3.03571-16.26,4.5398q.18585.71959.37176,1.43927a23.92573,23.92573,0,0,0,3.10883-.33667c11.70572-2.79364,23.47805-4.47736,35.60525-3.87445a55.54781,55.54781,0,0,0,15.25208-1.7544C389.29315,459.84009,391.77393,455.5722,392.82126,449.70117ZM363.99814,130.58829q.77709-.51071,1.55417-1.02141a21.74832,21.74832,0,0,0-1.50617-3.01314c-8.66415-12.28711-13.36029-26.1526-16.87414-40.62457a70.31567,70.31567,0,0,0-6.73557-16.53191c-1.06421-1.96933-4.41089-2.70527-6.7171-4.00345-.70657,2.38681-2.54294,5.14106-1.90854,7.09174A95.96767,95.96767,0,0,0,339.2251,89.6904c5.01672,8.94652,10.68457,17.52678,16.03512,26.28758C358.2178,120.82063,361.08835,125.71645,363.99814,130.58829ZM289.40057,434.958c-4.01516-.346-6.19613-.27253-8.24307-.76075-5.48578-1.30871-6.36005-4.25915-2.6723-8.43066,2.20624-2.49567,4.24094-5.17737,6.67078-7.4328,3.5852-3.32788,3.15826-5.902-.475-8.9223-5.2121-4.3328-5.09018-4.49823-9.635.79361a64.57446,64.57446,0,0,0-4.10895,5.02371c-4.67944,6.71271-3.774,19.11023,2.37387,24.44763,2.53791,2.20331,6.63672,4.33777,9.55472,3.82477C285.18271,443.09381,286.78284,438.608,289.40057,434.958Zm-23.27893-.012c-2.6268-.158-3.74331-.18408-4.84994-.3023a19.95307,19.95307,0,0,1-3.93286-.579c-4.31726-1.37763-5.25556-4.36109-2.41816-7.79047,2.54349-3.07416,5.1066-6.15631,7.92154-8.97479,2.659-2.66223,2.26462-4.5539-.39138-6.9946-6.12934-5.63235-6.03934-5.74857-11.32535.77567a56.20754,56.20754,0,0,0-3.61118,4.769c-4.42587,6.842-3.12689,19.28314,3.10648,24.335,2.48712,2.01569,6.60806,3.987,9.24463,3.26691C262.27991,442.79193,263.69632,438.47827,266.12164,434.946ZM182.51175,96.2515l-.38507-1.19317a11.17879,11.17879,0,0,0-2.65529.14571,99.74666,99.74666,0,0,1-33.53066,3.9735,48.65649,48.65649,0,0,0-13.81715,1.32086c-6.28491,1.57-8.97879,5.56885-9.25772,11.91174,4.96523,2.65338,10.051,1.23195,14.33218-1.01678,12.12491-6.36869,25.29177-9.13961,38.35256-12.42575A57.355,57.355,0,0,0,182.51175,96.2515Zm203.37552,55.75941,1.03686-.55721c-.86645-2.06228-1.45062-4.30711-2.64657-6.15631-6.32041-9.77261-10.799-20.18777-12.44568-31.8159a69.24788,69.24788,0,0,0-3.28385-13.05813c-2.2135-6.32541-4.59771-12.69819-10.97048-16.57967-3.84662,6.5413-2.495,12.654.561,18.40547,8.18011,15.39534,16.608,30.65929,24.9841,45.94986A36.04226,36.04226,0,0,0,385.88727,152.01091ZM79.662,430.7973a26.95275,26.95275,0,0,0,11.17041,18.07434c11.339,8.349,23.106,16.07477,32.71167,26.64051,2.13453,2.3479,6.40823,3.20282,9.85708,3.76757,3.0037.49183,5.00951-1.52227,2.98529-4.63836-2.1309-3.2804-4.26867-7.16437-7.4367-9.0318a101.44907,101.44907,0,0,0-19.00922-8.38422c-10.67638-3.61047-20.22511-8.4657-26.0157-18.71271C82.47931,435.95471,81.08162,433.36981,79.662,430.7973Zm151.208,50.48133q-.19382.66054-.38757,1.3211c.2446.4148.39627.95551.75275,1.21881a12.62933,12.62933,0,0,0,2.55862,1.52844c14.3617,6.02991,27.71906,13.39136,38.55206,25.07856,2.65918,2.86895,7.94336,3.96576,12.19831,4.52411,5.11069.67065,6.55435-2.10279,4.19006-6.84583-2.91241-5.84253-8.35681-8.26245-14.305-8.60858-11.49951-.66925-20.9856-5.81085-30.16529-12.02a65.23793,65.23793,0,0,0-7.6289-4.70251C234.88983,481.91528,232.80344,481.7525,230.86993,481.27863Zm59.92713-69.1728c5.22565,3.08045,5.10577,7.97126,5.05124,12.876-.05374,4.83167.048,9.66516-.0192,14.4964-.03577,2.57507.21066,4.62927,3.57434,4.69922,3.51956.07318,3.56278-2.20117,3.5535-4.665-.02444-6.49859-.11221-12.99817-.01242-19.49493a22.11329,22.11329,0,0,1,1.05347-4.60285l1.28958.0965c.2976,1.00848.65545,2.004.87713,3.02881.2605,1.20453.40277,2.43463.6174,3.78631,5.25409-2.27465,7.71463-5.85235,6.74415-10.03009a8.77082,8.77082,0,0,0-2.88172-4.88519c-.62469-.45422-2.93335,1.28125-4.39987,2.15311a34.502,34.502,0,0,0-3.00519,2.22317C296.64612,405.36246,296.3118,405.36008,290.79706,412.10583Zm-13.86987-331.548q.40173-1.06933.80352-2.13869c-3.25692-1.7396-6.41284-3.7127-9.79-5.17437-9.5606-4.13787-18.26672-9.34159-25.22537-17.34279a49.43589,49.43589,0,0,0-9.52136-7.952c-4.02194-2.75315-10.52741-2.41594-11.95316.16671-1.40438,2.544,1.21259,8.93378,5.32874,10.82244a46.42788,46.42788,0,0,0,13.25821,3.87507c7.20212.92176,13.24777,4.00167,19.0625,7.99445,4.3742,3.00363,8.82318,5.912,13.37616,8.63306C273.575,80.22379,275.36038,80.2079,276.92719,80.55786Zm145.262,52.10617a29.34956,29.34956,0,0,0-9.63806-17.56053c-11.00562-9.56-23.60044-17.28206-32.94135-28.79254a11.33725,11.33725,0,0,0-5.9183-3.47473,8.4165,8.4165,0,0,0-5.91541,1.0728c-.69665.44929-.48443,3.68692.37811,4.90687,2.26194,3.19942,4.61518,6.79865,7.8342,8.75124a84.13477,84.13477,0,0,0,16.7703,7.49592c13.20263,4.44515,23.04916,12.29183,28.07449,25.58445A13.76359,13.76359,0,0,0,422.18918,132.664ZM182.17357,464.4502l-1.79585,1.84643c2.4,2.39063,4.89521,4.69409,7.1822,7.18842,6.811,7.42846,13.69142,14.80261,20.23522,22.46246,3.10839,3.63867,5.11019,8.25775,8.36944,11.721a24.74706,24.74706,0,0,0,9.3328,5.96051c3.53787,1.28711,5.88024-1.19,4.28314-4.575a30.01054,30.01054,0,0,0-7.43479-9.99573c-3.87613-3.26245-9.085-4.93976-12.96731-8.19684-5.30615-4.45172-9.85748-9.795-14.82126-14.66547C190.49681,472.21191,186.30637,468.36041,182.17357,464.4502ZM319.915,165.22723q.09311-.8556.18619-1.71124c-5.77628-1.773-5.58164-6.16193-5.44272-10.57918.09924-3.15616-.2721-6.36639.20376-9.45431.22754-1.47673,1.8931-2.76013,2.985-4.06616.82873-.99125,1.78018-1.87984,2.67706-2.81411-1.008-.83618-2.08584-1.60287-3.00622-2.52642a19.36072,19.36072,0,0,1-3.04624-3.57085c-.60046-1.0078-.66867-2.3327-1.28207-4.71314-3.05966,3.04183-5.41611,5.25867-7.62366,7.61507-2.15249,2.29765-4.54,4.6071.5369,6.62135.96258.38192,1.543,2.74053,1.59839,4.21341.19952,5.31223.14309,10.6361.09744,15.95482-.03189,3.71283,1.41315,7.0727,4.90542,7.75565C314.84824,168.37143,317.49442,166.22278,319.915,165.22723ZM151.63147,514.70282l-.34987,1.83826a44.62715,44.62715,0,0,0,6.08682,1.97815c12.74858,2.26123,25.47315,4.75933,38.3051,6.4024,5.67206.72638,11.62323-.02948,17.35178-.81329,2.0567-.28125,3.83188-2.62036,5.73553-4.02027-1.77365-2.06768-3.28045-4.50262-5.42434-6.061-1.22293-.88886-3.605-.79736-5.254-.357a61.804,61.804,0,0,0-9.79538,3.57136c-9.13733,4.19671-18.38469,5.24-28.1322,2.19927C164.07906,517.54529,157.81247,516.26123,151.63147,514.70282ZM97.07332,467.19849l-.41786.494c.5195.633,1.00448,1.29847,1.56376,1.89417,5.9644,6.35291,41.58788,26.36914,50.24254,27.65808,4.16577.62042,8.53267-.10956,13.22635-.23962-2.70851-7.468-5.76935-10.06311-11.94319-10.78675a56.7072,56.7072,0,0,0-7.4641-.33685c-11.95054.18579-23.07449-2.3371-32.82417-9.64368C105.36745,473.17328,101.20337,470.20862,97.07332,467.19849ZM353.00473,46.514q.1371-.891.27417-1.78209c-18.39886-5.72908-37.06268-9.98679-56.58533-8.33414-2.88174.24393-5.61749,2.212-8.3916,3.37018,3.13587,8.06972,6.45273,9.70109,13.32718,7.22241a40.479,40.479,0,0,0,6.911-2.83571c8.69437-5.12806,17.69745-5.00023,26.98114-2.07791q6.18641,1.9473,12.45032,3.644A45.046,45.046,0,0,0,353.00473,46.514ZM283.78781,520.93317c-6.28738-4.90161-16.71945-2.48761-21.47488,4.43707-7.08393,10.31512-17.33631,13.141-28.89957,13.75214-5.2052.27514-10.38675.99865-15.579,1.51873a58.94532,58.94532,0,0,0,13.7587.16639c13.27414-1.13819,26.41324-2.97773,38.59091-8.86054C275.55725,529.35126,280.44955,526.10083,283.78781,520.93317ZM324.44455,97.43671l.82492-1.09555a8.63613,8.63613,0,0,0-1.0723-1.56452c-12.41348-11.61477-23.35253-24.33882-31.83273-39.23356-1.97543-3.46961-6.52838-5.78824-10.34155-7.784-2.55347-1.33645-4.34818.55648-4.15329,3.62424A12.235,12.235,0,0,0,284.378,61.9222a86.42183,86.42183,0,0,1,27.01721,23.13346,85.54232,85.54232,0,0,0,7.69153,8.4871A42.60169,42.60169,0,0,0,324.44455,97.43671Zm19.15289-32.178c2.43433,7.30237,6.5087,10.74835,13.19614,10.66817,13.05493-.15651,25.63055,1.07365,36.29361,9.741,3.9003,3.17035,7.92773,6.18422,11.89719,9.26948q.53017-.5811,1.06039-1.16221c-2.26459-1.915-4.32184-4.17348-6.829-5.68654-11.94473-7.20867-23.88956-14.43514-36.0878-21.19809A22.75827,22.75827,0,0,0,343.59744,65.25868ZM226.32272,40.89412a12.52926,12.52926,0,0,0,2.06089,1.158c7.28131,2.471,14.734-.22543,19.95779-7.54024,5.04224-7.06054,11.58026-11.32033,20.323-12.03563,7.00058-.57276,13.9949-1.2223,20.992-1.83778C269.85565,16.18719,233.58521,28.09375,226.32272,40.89412Zm17.5665,109.19607c2.36789-2.68727,4.95493-4.3552,5.41754-6.48466.52194-2.40259-.86728-5.22037-1.42529-7.85759-1.89719.78656-3.80557,1.54765-5.68494,2.37469a11.666,11.666,0,0,0-1.60348,1.0243c-6.90134-5.27642-7.8093-5.22834-9.98117-1.30825,1.24035,5.34371,2.534,9.12362,2.908,12.99245.44516,4.60436-.139,9.30492.24313,13.9207.11658,1.40793,1.95108,2.67359,2.99881,4.00443,1.07553-1.27967,2.99594-2.50617,3.08032-3.84815.364-5.788.11383-11.61177.26361-17.418a20.92325,20.92325,0,0,1,1.10331-4.46892l1.182.23105C242.78909,145.06862,243.187,146.885,243.88922,150.09019ZM184.39328,531.56256l-.12241,1.03058c.90992.14215,1.81891.2904,2.72985.4256,14.90373,2.21216,29.51848-.80469,44.2216-2.37512,4.95361-.52893,10.02606-.20417,14.90332-1.06635a7.87067,7.87067,0,0,0,5.19632-4.4043c.40631-1.19323-1.89648-3.96661-3.60251-5.10016-5.494-3.65039-10.86966-1.41094-15.15152,2.13239-10.93332,9.04755-23.46243,11.1637-37.0314,9.973C191.83264,531.85315,188.10826,531.76135,184.39328,531.56256ZM321.68649,29.711l.10916-1.75766c-4.64727-.3153-9.33755-1.19319-13.93393-.84211-14.734,1.12539-29.43377,2.69986-44.14437,4.12561a4.22706,4.22706,0,0,0-2.3638.62512c-1.489,1.43665-3.40406,2.92435-3.8841,4.7292-.288,1.08252,1.54007,3.11922,2.86151,4.16614,4.20475,3.33124,9.812,3.11951,15.83478-2.21625,11.34564-10.05147,24.47513-10.84726,38.40762-9.23364C316.92838,29.58018,319.31464,29.58334,321.68649,29.711ZM286.25131,493.14331c12.32083,10.84821,25.50174,19.22229,33.6543,11.89136-1.78864-5.63977-5.51422-9.45642-11.45648-10.19879C301.254,493.937,293.97614,493.701,286.25131,493.14331ZM189.55351,511.593c-.726-6.56293-5.12391-9.73133-12.17178-8.95752-12.61594,1.38519-25.24043,4.81164-37.76857-.78919C155.38255,509.27405,171.63249,513.81635,189.55351,511.593ZM363.29541,59.31879c-14.8468-7.2199-30.19641-11.84357-47.27762-9.48648a14.80839,14.80839,0,0,0,.65842,3.21476c2.37906,4.92284,8.27572,7.31192,15.60965,5.72026C342.69141,56.509,352.96991,55.40923,363.29541,59.31879Zm-140.858,8.6669q.24623-.66208.49243-1.32416c-4.45853-3.129-8.78308-6.47842-13.42761-9.30136-2.637-1.60272-5.75693-3.09175-8.7348-3.255-2.79935-.15345-5.69791,1.50264-8.5528,2.36257,1.61194,2.54936,2.72086,5.70364,4.92712,7.53827C204.7374,70.32214,213.94687,66.90842,222.43741,67.98569Zm268.11008,196.2395a11.09557,11.09557,0,0,0,11.4721-10.743,11.23882,11.23882,0,0,0-10.9992-11.28781c-6.01044-.11908-11.45014,4.96646-11.58051,10.82653A11.25815,11.25815,0,0,0,490.54749,264.22519ZM256.85522,483.89569l-.6838,2.99048q7.94582,1.44672,15.8916,2.89355.1728-.77151.34558-1.543ZM238.50391,72.12886l-.20572,1.293A27.7845,27.7845,0,0,0,252.795,77.33743q.24194-1.13788.48392-2.27577Z" transform="translate(38.0362 92.56599)"/>
    <path d="M455.19543,284.8999a13.21233,13.21233,0,0,1,11.04969-9.79626c6.79779-1.21881,9.14709,1.14511,7.1333,7.89435-1.61786,5.42239-3.66748,10.71527-5.49506,16.076-4.081,11.97056-8.27606,23.90555-12.08221,35.96311-.63861,2.02307.44037,4.58829.72571,6.903,2.28442-.68823,5.32952-.6788,6.71612-2.19058a196.71658,196.71658,0,0,0,13.71411-16.95279c1.83-2.50387,2.4953-5.82962,4.12061-8.52188,1.26227-2.091,3.19269-3.77859,4.82611-5.64551.48547,2.55435,1.97327,5.41663,1.29816,7.61447a89.05187,89.05187,0,0,1-30.22162,44.26755c-6.2237,4.961-14.15079,2.16669-17.07541-5.30246-.409-1.04464-.79517-2.09826-1.49365-3.94583-5.88251,6.36911-10.87912,14.60806-20.748,10.7988-8.84268-3.41312-9.38068-12.48514-11.67188-21.40567-2.40118,3.143-3.98944,5.79953-6.126,7.89758-4.35529,4.27667-8.5795,8.90854-13.63648,12.19611-7.32394,4.76144-14.09564,2.24441-17.24512-5.96958-1.6972-4.42648-2.3034-9.2713-3.493-14.3135-3.88263,4.65756-7.3645,9.451-11.501,13.59018a37.09979,37.09979,0,0,1-10.41471,7.52771c-6.91647,3.17553-12.67611.74173-15.25628-6.39371-1.83829-5.08389-2.59909-10.55737-4.00656-16.56461-1.22126,1.50949-2.25043,2.87281-3.37348,4.15378-4.49051,5.122-8.77328,10.45685-13.59555,15.24719-3.72891,3.70432-8.242,6.53983-13.93732,3.9722-5.44287-2.45389-6.86843-7.29849-7.25485-12.70263-.081-1.13224-.29257-2.2551-.59768-4.52671-1.8346,1.9993-3.04514,3.41068-4.3527,4.7255-3.398,3.41684-6.5877,7.10211-10.3179,10.11374-6.46533,5.21987-13.84909,4.62912-18.02713-2.53293-3.76443-6.4531-5.60361-14.04019-8.17608-21.16895-.5329-1.47687-.55582-3.13779-1.83548-4.92273a35.71478,35.71478,0,0,0-1.6803,3.75714c-2.336,7.2977-4.48944,14.65573-6.9318,21.917-1.96676,5.84725-9.58483,8.92858-14.53729,5.32632-1.99643-1.45218-2.23416-5.32224-3.49957-8.69833-1.50015,1.27938-3.43359,2.8421-5.26962,4.51193-3.96457,3.60562-8.07944,6.56424-13.87479,4.33407-5.77463-2.22222-6.86592-7.1936-7.482-12.48864-.10874-.9347-.37108-1.85154-.63047-3.10517-3.73275,3.62711-6.994,7.1012-10.5764,10.20459-5.19192,4.49778-11.09729,8.46045-18.09428,5.015-6.94-3.41745-8.14729-10.603-7.1471-17.32087a152.80232,152.80232,0,0,1,5.96329-23.57138c2.31613-7.28463,5.60344-14.25619,8.09905-21.49115.6158-1.78524-.18351-4.05862-.33226-6.1076-2.05036.69305-5.00057.75848-5.99674,2.1868-4.54146,6.51153-9.44722,13.01739-12.5237,20.24789-5.52841,12.99307-9.9241,26.47421-14.626,39.81037-2.42708,6.88418-6.35434,9.39907-13.33871,7.10433-1.75215-.57568-3.64522-3.40588-3.85036-5.36956-.298-2.85187.55472-5.9632,1.47411-8.78208,14.00972-42.95434,29.58-85.29394,50.15587-125.62533,1.19789-2.348,2.58439-4.90525,4.58683-6.45709,2.31127-1.7912,5.79613-4.00922,8.04749-3.39377,2.27808.62274,4.58362,4.25183,5.27252,6.97061a26.904,26.904,0,0,1-2.778,19.88119c-5.84493,10.44864-12.3953,20.50141-18.5891,30.75687-2.29639,3.80231-4.42235,7.70755-6.626,11.56586l1.01346.88952c1.51172-1.35376,2.83305-3.07055,4.57549-3.9844,3.43875-1.80347,6.99209-3.94123,10.7162-4.50846a7.24673,7.24673,0,0,1,8.71211,6.99094c.33461,6.56067.30572,13.38406-1.1503,19.732-1.96234,8.55545-5.53639,16.73187-8.20453,25.139a58.06529,58.06529,0,0,0-2.68265,11.613c-.37762,3.76114,2.0588,5.38763,5.40035,3.63974a28.7987,28.7987,0,0,0,7.83861-6.02066,58.70956,58.70956,0,0,0,13.31878-23.198c2.64884-9.11566,5.27906-18.241,8.17838-27.27835,2.33334-7.27319,6.15542-9.999,13.55408-10.37671,4.22674-.21576,6.06524,1.55335,5.13012,5.69443a116.6649,116.6649,0,0,1-3.86233,12.38785c-4.25565,12.275-8.61579,24.5137-12.86881,36.78958a26.928,26.928,0,0,0-1.6897,6.76022c-.12469,1.77469.164,4.61188,1.224,5.173,1.30521.691,3.96949.043,5.40885-.9502,8.21093-5.6655,13.4931-13.71805,17.24319-22.7724,10.32392-24.92624,20.36878-49.96912,30.84805-74.82928a214.298,214.298,0,0,1,11.18741-21.747c2.24793-3.9867,5.58353-7.85611,10.72486-6.39694,5.005,1.42044,5.87448,6.71875,5.33621,10.78875-.89975,6.80368-2.10208,14.00724-5.212,19.98343-5.74609,11.04193-13.38342,21.08621-19.41348,31.99887-3.66785,6.63776-5.95267,14.06955-8.5072,21.26941-.56134,1.58215.36743,3.693.61,5.56033,1.92163-.60022,4.5441-.60482,5.64615-1.90158,5.37076-6.31964,10.59271-12.80331,15.36554-19.58218,4.17121-5.92435,9.20841-8.27347,16.23633-6.52216,3.17657.79154,4.11472,2.89,2.93964,5.63733a73.51263,73.51263,0,0,1-4.88428,9.25544c-7.446,12.22274-14.53153,24.65527-27.08914,32.8038-5.03089,3.26452-3.01706,17.99646,2.66772,19.531,2.71573.73313,6.94147-.78442,9.31366-2.71771,8.85941-7.22024,14.56574-16.83569,18.1264-27.60034,3.08378-9.32291,5.48755-18.86948,8.5105-28.21414,2.38755-7.3805,6.63135-10.20874,14.06928-10.45313,3.46591-.11389,5.09405,1.42353,4.64783,4.77176a37.63693,37.63693,0,0,1-1.7277,7.26245c-4.94549,14.32468-10.00937,28.60846-14.97387,42.92664a36.48318,36.48318,0,0,0-1.89963,7.23059c-.19068,1.49515.06378,3.97211.96094,4.46066,1.29312.70416,3.47338.34989,5.04907-.2001a11.9799,11.9799,0,0,0,4.01871-2.88812A59.9034,59.9034,0,0,0,329.3017,309.921c6.98785-26.78433,17.30041-52.1506,33.31579-74.90106a41.3387,41.3387,0,0,1,9.83972-9.76142c6.58307-4.64114,12.56031-1.60345,13.45234,6.457a34.51589,34.51589,0,0,1-5.66468,22.89047q-13.57255,20.58426-28.87549,40.006c-4.50482,5.72424-8.07641,11.35-8.5227,18.62057-.42673,6.9524-1.334,13.98261-.72366,20.8627.67794,7.64274,5.72726,9.27033,11.31686,3.99991,9.08435-8.56552,14.25678-19.29861,17.60791-31.3258,7.18668-25.793,17.02029-50.52014,32.9682-72.3349a42.61291,42.61291,0,0,1,10.038-9.56314c5.67587-3.93985,12.01272-1.23764,12.41186,5.62881a46.88593,46.88593,0,0,1-2.29077,17.07211c-4.24719,12.825-12.39447,23.49405-20.78949,33.89035-4.60068,5.69748-9.77,10.98191-13.91916,16.98084a29.55663,29.55663,0,0,0-5.20453,12.64539,123.52235,123.52235,0,0,0-.65219,24.73126c.46683,5.6784,4.84277,6.90945,9.41791,3.3,8.3793-6.6106,13.21936-15.758,17.038-25.42948,4.3191-10.93878,9.156-21.47253,18.41346-29.26044,4.6221-3.88839,9.80761-6.88787,15.96823-5.24636C447.95477,280.11823,451.04388,282.62286,455.19543,284.8999Zm-13.01168,12.52054a22.37036,22.37036,0,0,0-3.31684.84711c-10.15765,4.03058-20.83136,25.44885-17.96106,35.94925,1.7713,6.48,6.48938,8.13751,11.54792,3.78277a21.489,21.489,0,0,0,5.69323-6.82608q5.78659-12.67039,10.69242-25.736C450.41467,301.24814,447.22925,297.4856,442.18375,297.42044Zm-40.6211-28.70587c6.02066-7.95,12.51956-15.62543,14.74692-25.75406C408.92664,250.12817,405.23566,259.4162,401.56265,268.71457Zm-40.04205-1.52588c6.03033-7.33884,11.70709-14.84729,13.86691-24.31735C368.47281,249.67841,364.71036,258.2883,361.5206,267.18869Z" transform="translate(38.0362 92.56599)"/>
    <path d="M77.28423,188.21637c5.87562-3.82056,10.72372-7.31345,15.88516-10.2569,10.15414-5.79071,21.14519-8.25418,32.73095-6.13226,14.4284,2.64255,23.65879,17.69763,21.68294,34.64731-2.56358,21.99148-18.27882,35.61062-40.41867,35.04608-10.1969-.26-19.86481-2.45129-28.36542-8.316-3.04119-2.09821-4.61012-1.35251-6.22589,1.60916-14.54808,26.66638-22.01218,55.00012-19.3656,85.46512a51.954,51.954,0,0,0,5.30032,18.0217c4.7401,9.6029,15.70785,10.86551,23.39638,3.42932,9.32346-9.01752,11.89518-27.19437,5.59031-39.62592-.6019-1.18676-1.316-2.31619-1.96242-3.48089-2.70656-4.87635-1.11313-8.15192,4.50332-8.48209,8.89371-.5228,15.53634,3.83576,19.80741,11.17029,7.63742,13.11545,6.21316,26.79135-.01828,39.79959-7.44023,15.53149-19.96237,24.0166-37.66405,24.28574-12.01286.18267-20.66447-5.62064-27.42957-14.75678-9.57391-12.92938-13.01776-27.92132-13.7677-43.66968-1.60838-33.77511,8.17207-64.45163,25.69474-92.926,1.71662-2.78955,2.321-5.08649,1.3902-8.32834-4.37334-15.23172-.453-28.9249,8.38-41.55185a7.1007,7.1007,0,0,1,2.42681-2.47415c1.69854-.78891,3.78978-1.84644,5.34923-1.42694,1.03092.27731,1.94687,2.92059,2.00156,4.53549.18568,5.48505-.13541,10.98541-.04761,16.4765A51.11414,51.11414,0,0,0,77.28423,188.21637Zm33.562,35.22757c10.96363.1785,18.634-4.75848,22.03285-13.43726,2.03876-5.20581,1.61563-10.18637-2.08075-14.52319-3.44138-4.03769-8.0611-4.259-12.83435-3.2536-11.14928,2.34833-19.24007,9.47443-26.6409,17.50845a4.11607,4.11607,0,0,0,.06668,4.02512C97.1153,219.4014,103.83347,223.16751,110.84621,223.44394Z" transform="translate(38.0362 92.56599)"/>
    <path d="M230.06665,409.82013c3.2049,3.00153,4.44226,4.34351,5.85886,5.45764,10.08456,7.931,8.44427,14.4903.38885,23.53034-4.62082,5.1856-10.233,7.25909-17.50519,5.44824-5.13583-1.27887-10.673-.94611-16.18164-1.34369,3.68763-14.333,4.84693-29.41425-.81476-45.31,6.41013-2.48834,13.41843-6.02045,20.84626-7.73083,3.427-.7891,8.12622,1.25366,11.44326,3.31088,4.97846,3.08755,5.21421,9.56232,1.115,13.82828C234.10071,408.17307,232.27451,408.65323,230.06665,409.82013Zm-17.42419,15.62622q.36016.5799.72027,1.15985a71.77208,71.77208,0,0,0,2.28415,8.07269c2.214,5.43293,6.77966,7.1828,11.60364,4.73682,5.48044-2.77887,7.46567-8.47247,4.297-13.25079a21.64275,21.64275,0,0,0-5.49637-5.65222c-1.66806-1.16834-4.6098-2.57245-5.85953-1.86951C217.31107,420.26349,215.11578,423.10211,212.64246,425.44635Zm.89087-9.45532,1.552.98529c4.15136-3.3996,8.76611-6.3931,12.2547-10.37357,1.69293-1.93161,2.04522-5.8309,1.61215-8.62347-.49271-3.17706-3.39166-4.70834-6.8508-4.33157-3.99851.43551-8.16446,4.285-8.48993,8.56948C213.26453,406.78412,213.53333,411.39777,213.53333,415.991Z" transform="translate(38.0362 92.56599)"/>
    <path class="cls-1" d="M286.50391,542.01044c15.92923-4.92243,28.36813-14.03339,36.37231-28.71143,1.26349-2.317,1.84085-5.00055,3.01288-7.37775a26.76686,26.76686,0,0,1,3.06125-4.2127c.82431-1.07038,1.70392-2.09815,2.559-3.14484a29.83235,29.83235,0,0,0-3.843-1.84027c-13.90051-4.42548-27.82162-8.78589-41.72919-13.18927a3.72943,3.72943,0,0,1-2.46456-2.34766c3.60943.4325,7.21258.92926,10.82959,1.285,8.90594.87591,17.821,1.65942,26.72717,2.53289,6.92087.67884,13.89169,1.11695,20.71652,2.348,2.15631.389,3.91284,2.99389,5.85233,4.58471-1.82148,1.76093-3.58439,3.58912-5.492,5.25122a24.7407,24.7407,0,0,1-3.9017,2.11713c2.52817,1.54218,4.33612,2.645,6.12573,3.73657C337.87369,518.17822,305.81445,543.92969,286.50391,542.01044Z" transform="translate(38.0362 92.56599)"/>
    <path class="cls-1" d="M226.45148,81.01981c-4.20175-.77269-8.37534-1.8095-12.61133-2.26064-7.745-.82486-15.53613-1.2075-23.2906-1.95532-6.73708-.64972-13.49845-1.28577-20.14287-2.50611-1.87937-.34516-3.38591-2.72029-5.06345-4.16444,1.64955-1.90652,3.2135-3.89839,4.98906-5.67929.75308-.75536,1.95017-1.06807,3.80826-2.02748l-5.68282-4.22821c10.15424-19.28209,37.2085-40.54517,56.48606-39.56971-4.049,1.67-7.62955,2.89393-10.98151,4.574-13.22034,6.62612-22.45416,16.78367-27.44716,30.85414-1.12646,3.17442-3.54074,5.89186-6.0358,9.90242,15.28228,5.26971,30.77419,10.61174,46.26613,15.95375Z" transform="translate(38.0362 92.56599)"/>
    <path class="cls-1" d="M351.67255,520.64374c4.23767-3.66,8.53506-7.25354,12.70111-10.99341,9.85757-8.84918,14.3013-20.04981,14.85821-33.18945.36185-8.53693,4.89066-11.63568,13.15952-9.56739-1.21695,11.8805-6.987,22.13306-12.56595,32.45252l1.476,1.02026c2.62372-2.73492,5.49655-5.27453,7.8241-8.24182,6.76517-8.62488,10.68622-18.28461,10.2904-29.50134a67.4886,67.4886,0,0,1,.69489-11.94086c.84952-5.89685,4.62717-8.4881,11.96649-7.9555-.89044,5.5401-1.33057,11.13977-2.73712,16.48516-3.96381,15.0636-10.59107,28.77387-22.5636,39.21216-2.27362,1.98224-5.69064,2.5987-8.41516,4.13739a19.15507,19.15507,0,0,0-4.92944,3.90766C367.53644,513.18109,360.755,518.5376,351.67255,520.64374Z" transform="translate(38.0362 92.56599)"/>
    <path class="cls-1" d="M132.73412,62.192a37.35832,37.35832,0,0,0-3.50177,2.98223c-8.83538,9.54916-13.58628,20.72865-13.59317,33.86383a81.6238,81.6238,0,0,1-.76607,13.40367c-.93364,5.56724-4.28438,7.61435-11.04035,6.88649.84035-5.50891,1.30707-11.08588,2.58542-16.47017,3.63555-15.31273,10.10784-29.21878,21.83307-40.12763,1.78861-1.66406,4.52463-2.275,6.72374-3.54408a19.4115,19.4115,0,0,0,4.64865-3.31625c6.10233-6.60346,12.47974-12.7724,21.73943-15.21442-2.94358,2.661-5.86608,5.34583-8.8346,7.97873-9.83963,8.72723-16.47188,19.05721-16.80392,32.70557a46.31158,46.31158,0,0,1-1.28052,7.862c-.83571,4.15927-3.64908,6.14574-7.67268,6.6888-3.06856.41415-5.19586-.24254-3.84395-3.96915,2.99362-8.25213,6.09173-16.46647,9.16989-24.68773.53423-1.42683,1.17966-2.812,1.77371-4.21647Z" transform="translate(38.0362 92.56599)"/>
    <path d="M218.78589,132.71089c-1.08518-1.55473-1.65155-2.32176-2.172-3.11877-4.879-7.47212-11.41415-7.6657-16.81418-.49176-5.66946,7.53187-5.18271,21.96359.97812,28.99955,4.889,5.5835,14.62686,6.10471,20.2811,1.1095,1.2998-1.14831,2.6738-2.21258,4.45319-3.67734-.25388,6.19413-5.05872,11.27314-11.30283,12.77271-10.99667,2.641-20.6579-3.038-24.89825-14.63545-3.92418-10.73276-.26455-23.765,8.60351-30.63774a18.56563,18.56563,0,0,1,21.04465-1.45862c1.99347,1.21711,4.91556,3.47957,4.76788,5.0077C223.52881,128.63306,220.76428,130.43748,218.78589,132.71089Z" transform="translate(38.0362 92.56599)"/>
    <path d="M269.49631,162.64673c-1.34049.99963-2.28327,1.63235-3.1474,2.35867-5.07056,4.2619-7.2948,3.98535-11.22739-1.4357a17.65041,17.65041,0,0,1,.48892-20.97113,56.8101,56.8101,0,0,1,8.95642-8.62207c1.02219-.81155,3.31653-.61952,4.77567-.131,1.84064.61623,3.37671,2.0896,5.1253,3.04464,3.24857,1.77423,4.33533,3.38166,3.15989,7.81648-1.43842,5.42692-2.75928,11.76457,1.06466,17.25413,2.07617,2.98047-.44858,4.491-2.20385,5.51514-.97623.56955-3.1558-.30914-4.45057-1.0975C271.03259,165.76614,270.55753,164.28305,269.49631,162.64673Zm.37164-13.12457c-.03418-.54323.41708-2.68969-.4025-4.095a14.42057,14.42057,0,0,0-4.89312-4.52685c-.60324-.37659-2.92905.543-3.15427,1.27409-1.04715,3.39858-2.43021,7.00241-2.15881,10.41063.26562,3.3357,2.25445,7.09906,6.55981,6.85294,4.86548-.2782,3.89292-4.43717,4.04672-7.6427C269.88165,151.46445,269.868,151.13222,269.868,149.52216Z" transform="translate(38.0362 92.56599)"/>
    <path class="cls-1" d="M317.93161,534.64221q6.52868-3.86655,13.05682-7.734c11.9-7.06823,19.17511-17.03589,20.56546-31.19116.726-7.39136,4.53275-10.08264,11.858-9.81586,6.5433.23829,8.17688,2.50318,4.69033,7.91748a125.063,125.063,0,0,1-13.06448,16.92249c-8.09814,8.79749-16.15619,17.83447-27.47781,22.74463-2.86591,1.24292-6.05344,1.74426-9.0932,2.58636Q318.19917,535.35712,317.93161,534.64221Z" transform="translate(38.0362 92.56599)"/>
    <path class="cls-1" d="M193.45456,26.46031c-3.136,1.97341-6.25807,3.96938-9.41046,5.91623-12.47736,7.70572-21.38008,17.60872-22.31377,33.26325-.46347,7.77092-4.83018,10.85733-12.33935,10.31274-5.1079-.37045-6.20414-2.049-4.17305-6.76695,4.50149-10.45636,12.47787-18.30489,20.11389-26.37425,6.29736-6.65476,12.882-13.01333,21.74768-16.22746a50.65327,50.65327,0,0,1,5.86828-1.39513Z" transform="translate(38.0362 92.56599)"/>
    <path d="M213.31964,253.58517c.66895-9.37316,3.83133-15.18762,9.90827-19.13134,5.46453-3.54627,10.45819-1.41056,12.21948,4.88064,1.85675,6.63227-1.07477,15.04459-6.97745,19.44922-3.13409,2.33862-7.00156,4.56745-10.46094,1.94776C215.455,258.79733,214.24771,255.08472,213.31964,253.58517Z" transform="translate(38.0362 92.56599)"/>
    <path d="M310.07437,250.80109a21.23053,21.23053,0,0,1,10.08487-16.59568c4.67917-2.9714,9.31619-1.32147,11.44248,3.69873,3.50549,8.27662-2.39982,20.74622-11.02936,23.28956C314.45041,262.998,310.13919,259.08356,310.07437,250.80109Z" transform="translate(38.0362 92.56599)"/>
    <path class="cls-1" d="M158.77245,450.728c3.58386,4.07684,7.01953,8.29657,10.78288,12.20037,7.499,7.77887,15.28282,15.28443,22.73221,23.1092a63.04325,63.04325,0,0,1,8.23513,10.55737c1.991,3.27338,2.51664,7.49011-1.18133,9.88513-3.73218,2.41712-7.55008-.01654-9.52232-3.01068a107.50807,107.50807,0,0,1-10.2461-18.74017,85.09818,85.09818,0,0,0-15.93057-25.12177c-2.19511-2.45825-3.98267-5.28052-5.95662-7.93628Z" transform="translate(38.0362 92.56599)"/>
    <path class="cls-1" d="M85.90059,388.70023c2.16354,2.29275,4.62852,4.37487,6.41492,6.93118a51.82474,51.82474,0,0,1,5.87808,10.39032c4.97967,12.58069,13.54243,22.75244,21.509,33.37866,2.34,3.12128,3.84082,6.94647,5.269,10.62653.37859.97546-.60173,3.42566-1.53354,3.81244-7.4,3.07189-17.52893-3.23017-17.33267-11.39191.47444-19.73078-7.91968-35.60507-20.18741-50.056a20.67591,20.67591,0,0,1-1.51072-2.33969Z" transform="translate(38.0362 92.56599)"/>
    <path class="cls-1" d="M416.75885,175.38681c-2.49036-2.46255-4.75345-3.937-5.94708-6.02341-3.6254-6.33694-6.55963-13.075-10.279-19.35106-4.89618-8.26188-10.3946-16.16467-15.41153-24.35815a103.04849,103.04849,0,0,1-6.64066-12.74164c-1.27856-2.94613.20563-4.65092,3.52191-4.90568,8.14917-.626,14.9394,4.8186,14.70014,13.38351-.50266,17.99727,6.66613,32.9437,16.897,46.92505,1.15958,1.58462,2.32156,3.16757,3.46292,4.76526A12.23961,12.23961,0,0,1,416.75885,175.38681Z" transform="translate(38.0362 92.56599)"/>
    <path class="cls-1" d="M308.79657,475.18823c5.54587-.283,11.12384-.28491,16.63025-.91357,8.73114-.99677,17.39615-2.56812,26.12451-3.59589a113.551,113.551,0,0,1,17.23706-1.04938c4.17713.14917,4.89807,3.43018,2.51743,6.36023a13.30978,13.30978,0,0,1-6.76953,4.528,39.91973,39.91973,0,0,1-12.3657.71313c-13.25549-1.28436-26.47253-2.96777-39.70111-4.52539-1.25454-.1477-2.486-.4909-3.72827-.74334Z" transform="translate(38.0362 92.56599)"/>
    <path class="cls-1" d="M345.43866,111.22163c-2.64627-3.36038-5.10339-6.89283-7.97437-10.04884-8.60336-9.45749-17.59906-18.56895-25.945-28.2439-2.9064-3.3692-4.79044-7.84188-6.25989-12.11383-.54431-1.58241.952-5.18754,2.39462-5.798a7.53518,7.53518,0,0,1,6.6659,1.23865,37.90692,37.90692,0,0,1,6.72537,9.174,56.30661,56.30661,0,0,1,4.90643,10.90174c3.25208,10.39764,9.17243,19.10426,16.16007,27.25692a68.05254,68.05254,0,0,1,4.59762,6.82918Q346.074,110.81962,345.43866,111.22163Z" transform="translate(38.0362 92.56599)"/>
    <path class="cls-1" d="M202.51834,86.81317c-3.88855.2592-7.78726.83978-11.66373.71733-11.61891-.36712-22.75438,2.05852-33.92042,4.87038-3.72516.93808-7.90428.59514-11.80322.17061-3.68813-.4016-4.81379-3.18416-2.72895-6.11611,1.5213-2.1394,3.86437-4.44764,6.25159-5.04779a36.26138,36.26138,0,0,1,12.28911-.77256c12.717,1.29281,25.39024,3.01722,38.07718,4.60055,1.20038.1498,2.37787.48293,3.56595.73094Z" transform="translate(38.0362 92.56599)"/>
    <path class="cls-1" d="M139.86508,431.97473c3.017,4.769,5.99031,9.56641,9.06075,14.30084,5.49675,8.47571,11.39373,16.71473,16.464,25.4361A118.39453,118.39453,0,0,1,173.78,490.57031c.557,1.52045-1.31761,3.93158-2.07356,5.933-2.11532-.95594-5.12213-1.3404-6.17256-2.97895a52.68187,52.68187,0,0,1-6.71556-13.74127c-4.48065-15.92309-9.55493-31.49347-19.75655-44.86786a6.45353,6.45353,0,0,1-.63163-2.1394Z" transform="translate(38.0362 92.56599)"/>
    <path class="cls-1" d="M316.54913,515.80792c-3.52411,3.72449-6.28894,8.10889-10.24844,10.57587-16.3974,10.21661-34.56967,16.06592-53.367,20.09064-.4484.09607-.93534.01208-1.73618-1.14881,5.24121-1.62982,10.49866-3.20959,15.71875-4.90448,4.58011-1.48706,9.22183-2.8573,13.65-4.72168,6.20728-2.61328,9.49292-7.9281,12.17908-13.86139C296.20078,514.20587,307.98563,510.82648,316.54913,515.80792Z" transform="translate(38.0362 92.56599)"/>
    <path class="cls-1" d="M350.88553,450.8125c4.21911-2.22626,7.93515-4.26886,11.72226-6.16992,10.68133-5.36194,21.35367-10.74475,32.114-15.94458a63.35528,63.35528,0,0,1,10.2211-3.78821c3.64133-1.0354,5.55054,1.12378,4.14856,4.26727a21.58327,21.58327,0,0,1-6.63083,8.638c-2.8338,2.01313-6.74628,2.66559-10.28311,3.50367C378.69037,444.51489,365.16385,447.54492,350.88553,450.8125Z" transform="translate(38.0362 92.56599)"/>
    <path class="cls-1" d="M300.5498,87.09288c-3.21334-2.06325-6.68322-3.82259-9.57644-6.265-3.79733-3.20565-7.12595-6.96415-10.68189-10.45867-4.64505-4.56482-9.83581-7.55412-16.73309-7.58015-6.66226-.02515-14.8768-8.931-15.25421-15.60067-.19727-3.48672,1.79239-4.93875,4.59946-3.70277,4.50173,1.98215,9.39907,3.97862,12.81881,7.313,6.87128,6.69978,12.577,14.5836,19.3219,21.42886,3.73935,3.795,8.62021,6.4599,12.95572,9.67577,1.35471,1.00485,2.6087,2.14557,3.90878,3.2241Z" transform="translate(38.0362 92.56599)"/>
    <path class="cls-1" d="M205.96286,474.83557c3.315,1.9632,6.85184,3.63709,9.88718,5.965a134.06246,134.06246,0,0,1,9.96609,9.07086c5.45709,5.1369,11.37619,8.83929,19.32312,9.14337,7.01093.26837,13.798,6.959,15.338,13.81567.9498,4.22889-.33963,5.72651-4.60574,4.86512-7.90161-1.59546-13.653-6.68079-18.92328-12.33661-3.62784-3.89325-6.95907-8.0611-10.51358-12.02484-5.26053-5.86609-10.93277-11.19721-18.488-14.10913-1.224-.47181-2.17569-1.65009-3.25326-2.50177Q205.32807,475.77938,205.96286,474.83557Z" transform="translate(38.0362 92.56599)"/>
    <path class="cls-1" d="M257.28168,15.556c-3.01041,1.145-5.98813,2.38717-9.03855,3.41331-5.193,1.74689-10.52215,3.12246-15.62823,5.08556-6.41025,2.46449-11.29926,6.58761-13.96323,13.30439-3.28708,8.288-9.81527,11.78615-18.50393,10.60376-4.24146-.5772-5.011-1.95943-2.48417-5.52439,1.898-2.67775,4.02115-5.50146,6.69788-7.27148C220.33948,24.60152,238.1,18.382,256.60168,14.11739Q256.94172,14.83667,257.28168,15.556Z" transform="translate(38.0362 92.56599)"/>
    <path class="cls-1" d="M161.32271,111.76126c-3.43768,2.05708-6.80075,4.25328-10.32732,6.14461q-14.68023,7.87322-29.48306,15.51691a61.37989,61.37989,0,0,1-9.53215,4.24061c-4.41754,1.39612-6.29306-.55109-5.43843-5.16287a10.88925,10.88925,0,0,1,7.94375-8.80426c6.024-1.80042,12.28124-2.80318,18.36708-4.4173,9.39107-2.49077,18.72126-5.211,28.07728-7.83385Z" transform="translate(38.0362 92.56599)"/>
    <path d="M293.16348,128.23112c.28165,2.37822-1.28952,6.69965,4.693,6.77721.51352.00668,1.5086,1.53522,1.39026,2.19792-.162.90743-1.1872,2.378-1.82361,2.36832-4.49173-.06845-3.96973,3.0349-3.97019,5.84383-.001,6.31283-.03695,12.62664.06613,18.938.04047,2.47748-.321,4.22318-3.39047,4.24115-3.21771.01883-3.28024-1.987-3.26477-4.32357.044-6.64508.17923-13.29787-.111-19.93055-.06671-1.52461-1.92163-2.89367-2.53736-4.49443-.55639-1.44648-.94192-4.4217-.72378-4.488,4.76352-1.4474,3.31662-4.85009,2.35159-7.7084-2.02029-5.98407,3.37964-5.82657,6.169-7.661,2.71753-1.78719,5.58819-1.7031,6.94806,1.76979.61236,1.564.94,4.27618.077,5.12439C297.90329,128.00035,295.46707,127.78992,293.16348,128.23112Z" transform="translate(38.0362 92.56599)"/>
    <path class="cls-1" d="M117.52258,411.06781c2.48047,4.05859,5.0217,8.0816,7.42977,12.18268,6.63752,11.3042,13.20567,22.64911,19.82846,33.962,3.83874,6.55726,6.1302,13.24561,2.18991,20.99384-4.94106-1.9942-7.45857-5.97156-9.04607-10.23755a157.44408,157.44408,0,0,1-6.61571-21.39313c-2.04179-9.42236-5.20909-18.17657-10.82005-26.06616a84.25288,84.25288,0,0,1-4.72594-8.48913Q116.64278,411.54413,117.52258,411.06781Z" transform="translate(38.0362 92.56599)"/>
    <path class="cls-1" d="M392.82126,449.70117c-1.04733,5.871-3.52811,10.13892-8.91754,11.40863a55.54781,55.54781,0,0,1-15.25208,1.7544c-12.1272-.60291-23.89953,1.08081-35.60525,3.87445a23.92573,23.92573,0,0,1-3.10883.33667q-.1859-.71961-.37176-1.43927c5.42282-1.50409,10.88348-2.88532,16.26-4.5398,9.02105-2.776,18.06555-5.50982,26.95248-8.676C379.08694,450.17273,385.23267,447.8092,392.82126,449.70117Z" transform="translate(38.0362 92.56599)"/>
    <path class="cls-1" d="M363.99814,130.58829c-2.90979-4.87184-5.78034-9.76766-8.73792-14.61031-5.35055-8.7608-11.0184-17.34106-16.03512-26.28758a95.96767,95.96767,0,0,1-7.41431-17.20485c-.6344-1.95068,1.202-4.70493,1.90854-7.09174,2.30621,1.29818,5.65289,2.03412,6.7171,4.00345A70.31567,70.31567,0,0,1,347.172,85.92917c3.51385,14.472,8.21,28.33746,16.87414,40.62457a21.74832,21.74832,0,0,1,1.50617,3.01314Q364.77525,130.07759,363.99814,130.58829Z" transform="translate(38.0362 92.56599)"/>
    <path d="M289.40057,434.958c-2.61773,3.65008-4.21786,8.13586-6.535,8.54321-2.918.513-7.01681-1.62146-9.55472-3.82477-6.14789-5.3374-7.05331-17.73492-2.37387-24.44763a64.57446,64.57446,0,0,1,4.10895-5.02371c4.5448-5.29184,4.42288-5.12641,9.635-.79361,3.6333,3.02032,4.06024,5.59442.475,8.9223-2.42984,2.25543-4.46454,4.93713-6.67078,7.4328-3.68775,4.17151-2.81348,7.12195,2.6723,8.43066C283.20444,434.68542,285.38541,434.61194,289.40057,434.958Zm-15.79333-10.74646q.88572.41739,1.77145.83484c1.478-1.62531,3.30023-3.07026,4.2872-4.95295.48514-.92547-.57708-2.662-.93908-4.03155-1.31467.39593-3.4599.455-3.78351,1.25287C274.07971,419.444,273.99908,421.89087,273.60724,424.21149Z" transform="translate(38.0362 92.56599)"/>
    <path d="M266.12164,434.946c-2.42532,3.53229-3.84173,7.84595-6.25622,8.50544-2.63657.72009-6.75751-1.25122-9.24463-3.26691-6.23337-5.05182-7.53235-17.49292-3.10648-24.335a56.20754,56.20754,0,0,1,3.61118-4.769c5.286-6.52424,5.196-6.408,11.32535-.77567,2.656,2.4407,3.05038,4.33237.39138,6.9946-2.81494,2.81848-5.378,5.90063-7.92154,8.97479-2.8374,3.42938-1.8991,6.41284,2.41816,7.79047a19.95307,19.95307,0,0,0,3.93286.579C262.37833,434.7619,263.49484,434.788,266.12164,434.946Zm-15.50287-10.76831q.80856.35487,1.6171.70978c1.53586-1.73584,3.33868-3.31854,4.468-5.2876.41556-.72461-.43857-2.92144-1.30347-3.41674-.78708-.45081-3.21109.19635-3.45438.87933A40.86985,40.86985,0,0,0,250.61877,424.17767Z" transform="translate(38.0362 92.56599)"/>
    <path class="cls-1" d="M182.51175,96.2515a57.355,57.355,0,0,1-6.96115,2.71611c-13.06079,3.28614-26.22765,6.05706-38.35256,12.42575-4.28122,2.24873-9.36695,3.67016-14.33218,1.01678.27893-6.34289,2.97281-10.3417,9.25772-11.91174a48.65649,48.65649,0,0,1,13.81715-1.32086,99.74666,99.74666,0,0,0,33.53066-3.9735,11.17879,11.17879,0,0,1,2.65529-.14571Z" transform="translate(38.0362 92.56599)"/>
    <path class="cls-1" d="M385.88727,152.01091a36.04226,36.04226,0,0,1-2.76465-3.81189c-8.37613-15.29057-16.804-30.55452-24.9841-45.94986-3.056-5.75149-4.40759-11.86417-.561-18.40547,6.37277,3.88148,8.757,10.25426,10.97048,16.57967a69.24788,69.24788,0,0,1,3.28385,13.05813c1.6467,11.62813,6.12527,22.04329,12.44568,31.8159,1.19595,1.8492,1.78012,4.094,2.64657,6.15631Z" transform="translate(38.0362 92.56599)"/>
    <path class="cls-1" d="M79.662,430.7973c1.41966,2.57251,2.81735,5.15741,4.26283,7.71533,5.79059,10.247,15.33932,15.10224,26.0157,18.71271a101.44907,101.44907,0,0,1,19.00922,8.38422c3.168,1.86743,5.3058,5.7514,7.4367,9.0318,2.02422,3.11609.01841,5.13019-2.98529,4.63836-3.44885-.56475-7.72255-1.41967-9.85708-3.76757-9.60565-10.56574-21.37267-18.29151-32.71167-26.64051A26.95275,26.95275,0,0,1,79.662,430.7973Z" transform="translate(38.0362 92.56599)"/>
    <path class="cls-1" d="M230.86993,481.27863c1.93351.47387,4.0199.63665,5.765,1.49408a65.23793,65.23793,0,0,1,7.6289,4.70251c9.17969,6.20917,18.66578,11.35077,30.16529,12.02,5.94821.34613,11.39261,2.766,14.305,8.60858,2.36429,4.743.92063,7.51648-4.19006,6.84583-4.255-.55835-9.53913-1.65516-12.19831-4.52411-10.833-11.6872-24.19036-19.04865-38.55206-25.07856a12.62933,12.62933,0,0,1-2.55862-1.52844c-.35648-.2633-.50815-.804-.75275-1.21881Q230.67613,481.93918,230.86993,481.27863Z" transform="translate(38.0362 92.56599)"/>
    <path d="M290.79706,412.10583c5.51474-6.74575,5.84906-6.74337,12.44241-.31848a34.502,34.502,0,0,1,3.00519-2.22317c1.46652-.87186,3.77518-2.60733,4.39987-2.15311a8.77082,8.77082,0,0,1,2.88172,4.88519c.97048,4.17774-1.49006,7.75544-6.74415,10.03009-.21463-1.35168-.3569-2.58178-.6174-3.78631-.22168-1.02484-.57953-2.02033-.87713-3.02881l-1.28958-.0965a22.11329,22.11329,0,0,0-1.05347,4.60285c-.09979,6.49676-.012,12.99634.01242,19.49493.00928,2.46381-.03394,4.73816-3.5535,4.665-3.36368-.07-3.61011-2.12415-3.57434-4.69922.0672-4.83124-.03454-9.66473.0192-14.4964C295.90283,420.07709,296.02271,415.18628,290.79706,412.10583Z" transform="translate(38.0362 92.56599)"/>
    <path class="cls-1" d="M276.92719,80.55786c-1.56681-.35-3.35224-.33407-4.6608-1.11613-4.553-2.721-9.002-5.62943-13.37616-8.63306-5.81473-3.99278-11.86038-7.07269-19.0625-7.99445a46.42788,46.42788,0,0,1-13.25821-3.87507c-4.11615-1.88866-6.73312-8.27846-5.32874-10.82244,1.42575-2.58265,7.93122-2.91986,11.95316-.16671a49.43589,49.43589,0,0,1,9.52136,7.952c6.95865,8.0012,15.66477,13.20492,25.22537,17.34279,3.3772,1.46167,6.53312,3.43477,9.79,5.17437Q277.32894,79.48851,276.92719,80.55786Z" transform="translate(38.0362 92.56599)"/>
    <path class="cls-1" d="M422.18918,132.664a13.76359,13.76359,0,0,1-1.356-2.01652c-5.02533-13.29262-14.87186-21.1393-28.07449-25.58445a84.13477,84.13477,0,0,1-16.7703-7.49592c-3.219-1.95259-5.57226-5.55182-7.8342-8.75124-.86254-1.21995-1.07476-4.45758-.37811-4.90687a8.4165,8.4165,0,0,1,5.91541-1.0728,11.33725,11.33725,0,0,1,5.9183,3.47473c9.34091,11.51048,21.93573,19.23253,32.94135,28.79254A29.34956,29.34956,0,0,1,422.18918,132.664Z" transform="translate(38.0362 92.56599)"/>
    <path class="cls-1" d="M182.17357,464.4502c4.1328,3.91021,8.32324,7.76171,12.38359,11.74578,4.96378,4.87049,9.51511,10.21375,14.82126,14.66547,3.88226,3.25708,9.09118,4.93439,12.96731,8.19684a30.01054,30.01054,0,0,1,7.43479,9.99573c1.5971,3.385-.74527,5.86212-4.28314,4.575a24.74706,24.74706,0,0,1-9.3328-5.96051c-3.25925-3.46326-5.26105-8.08234-8.36944-11.721-6.5438-7.65985-13.42426-15.034-20.23522-22.46246-2.287-2.49433-4.78216-4.79779-7.1822-7.18842Z" transform="translate(38.0362 92.56599)"/>
    <path d="M319.915,165.22723c-2.42062.99555-5.0668,3.1442-7.21076,2.72489-3.49227-.683-4.93731-4.04282-4.90542-7.75565.04565-5.31872.10208-10.64259-.09744-15.95482-.05536-1.47288-.63581-3.83149-1.59839-4.21341-5.07688-2.01425-2.68939-4.3237-.5369-6.62135,2.20755-2.3564,4.564-4.57324,7.62366-7.61507.6134,2.38044.68161,3.70534,1.28207,4.71314a19.36072,19.36072,0,0,0,3.04624,3.57085c.92038.92355,1.99817,1.69024,3.00622,2.52642-.89688.93427-1.84833,1.82286-2.67706,2.81411-1.09189,1.306-2.75745,2.58943-2.985,4.06616-.47586,3.08792-.10452,6.29815-.20376,9.45431-.13892,4.41725-.33356,8.80617,5.44272,10.57918Q320.00816,164.3716,319.915,165.22723Z" transform="translate(38.0362 92.56599)"/>
    <path class="cls-1" d="M151.63147,514.70282c6.181,1.55841,12.44759,2.84247,18.52344,4.73791,9.74751,3.04078,18.99487,1.99744,28.1322-2.19927a61.804,61.804,0,0,1,9.79538-3.57136c1.649-.44036,4.03107-.53186,5.254.357,2.14389,1.55835,3.65069,3.99329,5.42434,6.061-1.90365,1.39991-3.67883,3.739-5.73553,4.02027-5.72855.78381-11.67972,1.53967-17.35178.81329-12.832-1.64307-25.55652-4.14117-38.3051-6.4024a44.62715,44.62715,0,0,1-6.08682-1.97815Z" transform="translate(38.0362 92.56599)"/>
    <path class="cls-1" d="M97.07332,467.19849c4.13005,3.01013,8.29413,5.97479,12.38333,9.03936,9.74968,7.30658,20.87363,9.82947,32.82417,9.64368a56.7072,56.7072,0,0,1,7.4641.33685c6.17384.72364,9.23468,3.31879,11.94319,10.78675-4.69368.13006-9.06058.86-13.22635.23962-8.65466-1.28894-44.27814-21.30517-50.24254-27.65808-.55928-.5957-1.04426-1.26117-1.56376-1.89417Z" transform="translate(38.0362 92.56599)"/>
    <path class="cls-1" d="M353.00473,46.514a45.046,45.046,0,0,1-5.03317-.79325q-6.26024-1.69347-12.45032-3.644c-9.28369-2.92232-18.28677-3.05015-26.98114,2.07791a40.479,40.479,0,0,1-6.911,2.83571c-6.87445,2.47868-10.19131.84731-13.32718-7.22241,2.77411-1.15819,5.50986-3.12625,8.3916-3.37018,19.52265-1.65265,38.18647,2.60506,56.58533,8.33414Q353.14185,45.623,353.00473,46.514Z" transform="translate(38.0362 92.56599)"/>
    <path class="cls-1" d="M283.78781,520.93317c-3.33826,5.16766-8.23056,8.41809-13.60385,11.01379-12.17767,5.88281-25.31677,7.72235-38.59091,8.86054a58.94532,58.94532,0,0,1-13.7587-.16639c5.19226-.52008,10.37381-1.24359,15.579-1.51873,11.56326-.61115,21.81564-3.437,28.89957-13.75214C267.06836,518.44556,277.50043,516.03156,283.78781,520.93317Z" transform="translate(38.0362 92.56599)"/>
    <path class="cls-1" d="M324.44455,97.43671a42.60169,42.60169,0,0,1-5.35779-3.894,85.54232,85.54232,0,0,1-7.69153-8.4871A86.42183,86.42183,0,0,0,284.378,61.9222a12.235,12.235,0,0,1-6.50842-10.53887c-.19489-3.06776,1.59982-4.96069,4.15329-3.62424,3.81317,1.99575,8.36612,4.31438,10.34155,7.784,8.4802,14.89474,19.41925,27.61879,31.83273,39.23356a8.63613,8.63613,0,0,1,1.0723,1.56452Z" transform="translate(38.0362 92.56599)"/>
    <path class="cls-1" d="M343.59744,65.25868A22.75827,22.75827,0,0,1,363.128,66.89052c12.19824,6.763,24.14307,13.98942,36.0878,21.19809,2.50711,1.51306,4.56436,3.77156,6.829,5.68654q-.53024.5811-1.06039,1.16221c-3.96946-3.08526-7.99689-6.09913-11.89719-9.26948-10.66306-8.66738-23.23868-9.89754-36.29361-9.741C350.10614,76.007,346.03177,72.56105,343.59744,65.25868Z" transform="translate(38.0362 92.56599)"/>
    <path class="cls-1" d="M226.32272,40.89412c7.26249-12.80037,43.53293-24.70693,63.33368-20.2556-6.9971.61548-13.99142,1.265-20.992,1.83778-8.74274.7153-15.28076,4.97509-20.323,12.03563-5.22382,7.31481-12.67648,10.0112-19.95779,7.54024A12.52926,12.52926,0,0,1,226.32272,40.89412Z" transform="translate(38.0362 92.56599)"/>
    <path d="M243.88922,150.09019c-.70221-3.2052-1.10013-5.02157-1.49808-6.838l-1.182-.23105a20.92325,20.92325,0,0,0-1.10331,4.46892c-.14978,5.80623.10035,11.63-.26361,17.418-.08438,1.342-2.00479,2.56848-3.08032,3.84815-1.04773-1.33084-2.88223-2.5965-2.99881-4.00443-.38214-4.61578.202-9.31634-.24313-13.9207-.37409-3.86883-1.6677-7.64874-2.908-12.99245,2.17187-3.92009,3.07983-3.96817,9.98117,1.30825a11.666,11.666,0,0,1,1.60348-1.0243c1.87937-.827,3.78775-1.58813,5.68494-2.37467.558,2.6372,1.94723,5.455,1.42529,7.85757C248.84415,145.735,246.25711,147.40292,243.88922,150.09019Z" transform="translate(38.0362 92.56599)"/>
    <path class="cls-1" d="M184.39328,531.56256c3.715.19879,7.43936.29059,11.14325.6156,13.569,1.19074,26.09808-.92541,37.0314-9.973,4.28186-3.54333,9.6575-5.78278,15.15152-2.13239,1.706,1.13355,4.00882,3.90693,3.60251,5.10016a7.87067,7.87067,0,0,1-5.19632,4.4043c-4.87726.86218-9.94971.53742-14.90332,1.06635-14.70312,1.57043-29.31787,4.58728-44.2216,2.37512-.91094-.1352-1.81993-.28345-2.72985-.4256Z" transform="translate(38.0362 92.56599)"/>
    <path class="cls-1" d="M321.68649,29.711c-2.37185-.1277-4.75811-.13086-7.11313-.40359-13.93249-1.61362-27.062-.81783-38.40762,9.23364-6.02277,5.33576-11.63,5.54749-15.83478,2.21625-1.32144-1.04692-3.14947-3.08362-2.86151-4.16614.48-1.80485,2.39511-3.29255,3.8841-4.7292a4.22706,4.22706,0,0,1,2.3638-.62512c14.7106-1.42575,29.4104-3.00022,44.14437-4.12561,4.59638-.35108,9.28666.52681,13.93393.84211Z" transform="translate(38.0362 92.56599)"/>
    <path class="cls-1" d="M286.25131,493.14331c7.72483.55768,15.00272.79364,22.19782,1.69257,5.94226.74237,9.66784,4.559,11.45648,10.19879C311.753,512.3656,298.57214,503.99152,286.25131,493.14331Z" transform="translate(38.0362 92.56599)"/>
    <path class="cls-1" d="M189.55351,511.593c-17.921,2.22339-34.171-2.31891-49.94035-9.74671,12.52814,5.60083,25.15263,2.17438,37.76857.78919C184.4296,501.86163,188.82748,505.03,189.55351,511.593Z" transform="translate(38.0362 92.56599)"/>
    <path class="cls-1" d="M363.29541,59.31879c-10.3255-3.90956-20.604-2.80976-31.00955-.55146-7.33393,1.59166-13.23059-.79742-15.60965-5.72026a14.80839,14.80839,0,0,1-.65842-3.21476C333.099,47.47522,348.44861,52.09889,363.29541,59.31879Z" transform="translate(38.0362 92.56599)"/>
    <path class="cls-1" d="M222.43741,67.98569c-8.49054-1.07727-17.7,2.33645-25.29566-3.97969-2.20626-1.83463-3.31518-4.98891-4.92712-7.53827,2.85489-.85993,5.75345-2.516,8.5528-2.36257,2.97787.16326,6.09783,1.65229,8.7348,3.255,4.64453,2.82294,8.96908,6.17238,13.42761,9.30136Q222.68366,67.3236,222.43741,67.98569Z" transform="translate(38.0362 92.56599)"/>
    <path d="M490.54749,264.22519a11.25815,11.25815,0,0,1-11.10761-11.20429c.13037-5.86007,5.57007-10.94561,11.58051-10.82653a11.23882,11.23882,0,0,1,10.9992,11.28781A11.09557,11.09557,0,0,1,490.54749,264.22519Zm8.42694-11.11908a8.21416,8.21416,0,1,0-16.42713-.00235,8.68353,8.68353,0,0,0,8.47309,8.66095C495.23553,261.69174,499.02277,257.569,498.97443,253.10611Z" transform="translate(38.0362 92.56599)"/>
    <path class="cls-1" d="M256.85522,483.89569l15.55338,4.34107q-.17275.77151-.34558,1.543-7.94581-1.4468-15.8916-2.89355Z" transform="translate(38.0362 92.56599)"/>
    <path class="cls-1" d="M238.50391,72.12886l14.77505,2.9328q-.242,1.13788-.48392,2.27577a27.7845,27.7845,0,0,1-14.49685-3.91552Z" transform="translate(38.0362 92.56599)"/>
    <path class="cls-2" d="M442.18375,297.42044c5.0455.06516,8.23092,3.8277,6.65567,8.017q-4.90289,13.03926-10.69242,25.736a21.489,21.489,0,0,1-5.69323,6.82608c-5.05854,4.35474-9.77662,2.69718-11.54792-3.78277-2.8703-10.5004,7.80341-31.91867,17.96106-35.94925A22.37036,22.37036,0,0,1,442.18375,297.42044Z" transform="translate(38.0362 92.56599)"/>
    <path class="cls-2" d="M401.56265,268.71457c3.673-9.29837,7.364-18.5864,14.74692-25.75406C414.08221,253.08914,407.58331,260.76453,401.56265,268.71457Z" transform="translate(38.0362 92.56599)"/>
    <path class="cls-2" d="M361.5206,267.18869c3.18976-8.90039,6.95221-17.51028,13.86691-24.31735C373.22769,252.3414,367.55093,259.84985,361.5206,267.18869Z" transform="translate(38.0362 92.56599)"/>
    <path class="cls-2" d="M110.84621,223.44394c-7.01274-.27643-13.73091-4.04254-19.45647-9.68048a4.11607,4.11607,0,0,1-.06668-4.02512c7.40083-8.034,15.49162-15.16012,26.6409-17.50845,4.77325-1.00537,9.393-.78409,12.83435,3.2536,3.69638,4.33682,4.11951,9.31738,2.08075,14.52319C129.48019,218.68546,121.80984,223.62244,110.84621,223.44394Z" transform="translate(38.0362 92.56599)"/>
    <path class="cls-2" d="M212.64246,425.44635c2.47332-2.34424,4.66861-5.18286,7.54919-6.80316,1.24973-.70294,4.19147.70117,5.85953,1.86951a21.64275,21.64275,0,0,1,5.49637,5.65222c3.16864,4.77832,1.18341,10.47192-4.297,13.25079-4.824,2.446-9.38959.69611-11.60364-4.73682a71.77208,71.77208,0,0,1-2.28415-8.07269Q213.00261,426.0263,212.64246,425.44635Z" transform="translate(38.0362 92.56599)"/>
    <path class="cls-2" d="M213.53333,415.991c0-4.59326-.2688-9.20691.07812-13.77384.32547-4.28448,4.49142-8.134,8.48993-8.56948,3.45914-.37677,6.35809,1.15451,6.8508,4.33157.43307,2.79257.08078,6.69186-1.61215,8.62347-3.48859,3.98047-8.10334,6.974-12.2547,10.37357Z" transform="translate(38.0362 92.56599)"/>
    <path class="cls-2" d="M269.868,149.52216c0,1.61006.0137,1.94229-.00217,2.2731-.1538,3.20553.81876,7.3645-4.04672,7.6427-4.30536.24612-6.29419-3.51724-6.55981-6.85294-.2714-3.40822,1.11166-7.012,2.15881-10.41063.22522-.731,2.551-1.65068,3.15427-1.27409a14.42057,14.42057,0,0,1,4.89312,4.52685C270.285,146.83247,269.83377,148.97893,269.868,149.52216Z" transform="translate(38.0362 92.56599)"/>
    <path class="cls-2" d="M273.60724,424.21149c.39184-2.32062.47247-4.76752,1.33606-6.89679.32361-.79785,2.46884-.85694,3.78351-1.25287.362,1.36951,1.42422,3.10608.93908,4.03155-.987,1.88269-2.80917,3.32764-4.2872,4.95295Q274.493,424.62894,273.60724,424.21149Z" transform="translate(38.0362 92.56599)"/>
    <path class="cls-2" d="M250.61877,424.17767a40.86985,40.86985,0,0,1,1.32727-7.11523c.24329-.683,2.6673-1.33014,3.45438-.87933.8649.4953,1.719,2.69213,1.30347,3.41674-1.12934,1.96906-2.93216,3.55176-4.468,5.2876Q251.42733,424.53259,250.61877,424.17767Z" transform="translate(38.0362 92.56599)"/>
    <path class="cls-2" d="M498.97443,253.10611c.04834,4.46292-3.7389,8.58563-7.954,8.6586a8.68353,8.68353,0,0,1-8.47309-8.66095,8.21416,8.21416,0,1,1,16.42713.00235Zm-5.09967,5.26184,1.78015-.17911c-.7121-3.34744-1.113-6.82351-2.399-9.93362-.25678-.62116-5.46979-.34137-5.69428.37274-.9364,2.97861-.84112,6.28156-1.1242,9.46555l1.52936.21115c.89013-1.12879,1.78027-2.25757,2.89007-3.665C492.08563,256.15771,492.98022,257.26285,493.87476,258.368Z" transform="translate(38.0362 92.56599)"/>
    <path d="M493.87476,258.368c-.89454-1.1051-1.78913-2.21024-3.01795-3.72824-1.1098,1.40738-1.99994,2.53616-2.89007,3.665l-1.52936-.21115c.28308-3.184.1878-6.48694,1.1242-9.46555.22449-.71411,5.4375-.9939,5.69428-.37274,1.28607,3.11011,1.687,6.58618,2.399,9.93362Z" transform="translate(38.0362 92.56599)"/>
  </g>
</svg>
